<svg width="37" height="41" viewBox="0 0 37 41" fill="none" xmlns="http://www.w3.org/2000/svg">
<path d="M6.75 1L1 8.66667V35.5C1 36.5167 1.40387 37.4917 2.12276 38.2106C2.84165 38.9295 3.81667 39.3333 4.83333 39.3333H31.6667C32.6833 39.3333 33.6584 38.9295 34.3772 38.2106C35.0961 37.4917 35.5 36.5167 35.5 35.5V8.66667L29.75 1H6.75Z" stroke="black" stroke-width="2" stroke-linecap="round" stroke-linejoin="round"/>
<path d="M1 8.66602H35.5" stroke="black" stroke-width="2" stroke-linecap="round" stroke-linejoin="round"/>
<path d="M25.9167 16.334C25.9167 18.3673 25.1089 20.3174 23.6711 21.7551C22.2334 23.1929 20.2833 24.0007 18.25 24.0007C16.2167 24.0007 14.2666 23.1929 12.8288 21.7551C11.3911 20.3174 10.5833 18.3673 10.5833 16.334" stroke="black" stroke-width="2" stroke-linecap="round" stroke-linejoin="round"/>
</svg>
