<svg width="80" height="7" viewBox="0 0 80 7" fill="none" xmlns="http://www.w3.org/2000/svg">
<path fill-rule="evenodd" clip-rule="evenodd" d="M19.3052 6.05955C19.4993 6.12432 19.7056 6.14294 19.9081 6.11393H23.6341C23.8366 6.14294 24.043 6.12432 24.237 6.05955C24.4311 5.99479 24.6073 5.88565 24.752 5.7408C24.8966 5.59594 25.0056 5.41933 25.0702 5.22498C25.1349 5.03062 25.1535 4.82386 25.1245 4.62106V2.00616C25.1535 1.80337 25.1349 1.5966 25.0702 1.40224C25.0056 1.20788 24.8966 1.03128 24.752 0.886425C24.6073 0.74156 24.4311 0.632424 24.237 0.567661C24.043 0.502899 23.8366 0.484286 23.6341 0.513295H19.9081C19.7056 0.484286 19.4993 0.502899 19.3052 0.567661C19.1111 0.632424 18.9349 0.74156 18.7902 0.886425C18.6456 1.03128 18.5367 1.20788 18.472 1.40224C18.4073 1.5966 18.3887 1.80337 18.4177 2.00616V4.62106C18.3887 4.82386 18.4073 5.03062 18.472 5.22498C18.5367 5.41933 18.6456 5.59594 18.7902 5.7408C18.9349 5.88565 19.1111 5.99479 19.3052 6.05955ZM6.22017 0.570039C6.02614 0.505276 5.81971 0.486663 5.61725 0.515672L1.88652 0.513295C1.68406 0.484286 1.47763 0.502899 1.2836 0.567661C1.08956 0.632424 0.913251 0.74156 0.768634 0.886425C0.624008 1.03128 0.515061 1.20788 0.450398 1.40224C0.385743 1.5966 0.36716 1.80337 0.396122 2.00616V4.62106C0.367097 4.82401 0.385695 5.03094 0.450437 5.22543C0.515179 5.41993 0.624285 5.59663 0.769092 5.74153C0.9139 5.88642 1.09043 5.99551 1.28467 6.06015C1.4789 6.1248 1.68552 6.14321 1.8881 6.11393H5.61725C5.81924 6.1423 6.02506 6.1233 6.21847 6.05842C6.41189 5.99354 6.58761 5.88455 6.73181 5.74004C6.876 5.59554 6.98471 5.41946 7.04939 5.22569C7.11406 5.03191 7.13292 4.82575 7.10448 4.62344V3.13057H3.37849V3.50379H6.73505V4.62344C6.75672 4.77553 6.74276 4.93058 6.69425 5.07633C6.64574 5.22207 6.56402 5.35451 6.45557 5.46314C6.34712 5.57178 6.2149 5.65363 6.06939 5.70222C5.92389 5.75081 5.76909 5.7648 5.61725 5.74309H1.8881C1.73626 5.7648 1.58146 5.75081 1.43595 5.70222C1.29045 5.65363 1.15823 5.57178 1.04978 5.46314C0.941326 5.35451 0.859608 5.22207 0.811099 5.07633C0.76259 4.93058 0.748619 4.77553 0.770303 4.62344V2.00854C0.748619 1.85645 0.76259 1.70139 0.811099 1.55564C0.859608 1.4099 0.941326 1.27746 1.04978 1.16883C1.15823 1.06019 1.29045 0.978343 1.43595 0.929753C1.58146 0.881164 1.73626 0.86717 1.8881 0.888889H5.61725C5.76891 0.867582 5.92343 0.881877 6.06863 0.930649C6.21383 0.97942 6.34572 1.06133 6.45389 1.16991C6.56206 1.27849 6.64356 1.41078 6.69194 1.55632C6.74032 1.70186 6.75426 1.85667 6.73267 2.00854H7.10765C7.13661 1.80574 7.11802 1.59898 7.05336 1.40462C6.98871 1.21026 6.87975 1.03366 6.73513 0.888802C6.59052 0.743937 6.4142 0.634801 6.22017 0.570039ZM15.2298 0.570033C15.0357 0.505271 14.8293 0.486658 14.6268 0.515667L9.40728 0.518837V6.11709H9.77988V3.5022H14.6252C14.7771 3.48048 14.9319 3.49447 15.0774 3.54306C15.2229 3.59165 15.3552 3.6735 15.4636 3.78213C15.5721 3.89077 15.6538 4.0232 15.7023 4.16895C15.7508 4.3147 15.7648 4.46975 15.743 4.62185V6.11472H16.1172V4.62185C16.1485 4.36727 16.1064 4.10908 15.9961 3.87762C15.8858 3.64614 15.7119 3.45102 15.4946 3.31519C15.7119 3.17935 15.8858 2.98423 15.9961 2.75277C16.1064 2.5213 16.1485 2.2631 16.1172 2.00854C16.1463 1.80574 16.1277 1.59897 16.063 1.40461C15.9983 1.21025 15.8894 1.03365 15.7448 0.888797C15.6001 0.743932 15.4238 0.634795 15.2298 0.570033ZM15.743 2.00854C15.7648 1.85644 15.7508 1.70139 15.7023 1.55564C15.6538 1.40989 15.5721 1.27746 15.4636 1.16882C15.3552 1.06019 15.2229 0.978339 15.0774 0.929749C14.9319 0.88116 14.7771 0.867166 14.6252 0.888886H9.77988V3.12819H14.6237C14.7756 3.15018 14.9307 3.13639 15.0763 3.08793C15.222 3.03946 15.3545 2.95764 15.4632 2.84897C15.5718 2.7403 15.6536 2.60777 15.7022 2.46188C15.7509 2.316 15.7648 2.16078 15.743 2.00854ZM18.7887 4.62106C18.767 4.77315 18.781 4.92821 18.8295 5.07395C18.878 5.2197 18.9597 5.35214 19.0682 5.46077C19.1766 5.5694 19.3089 5.65126 19.4544 5.69985C19.5999 5.74844 19.7547 5.76242 19.9065 5.74071H23.6325C23.7844 5.76242 23.9392 5.74844 24.0847 5.69985C24.2301 5.65126 24.3624 5.5694 24.4709 5.46077C24.5793 5.35214 24.661 5.2197 24.7095 5.07395C24.758 4.92821 24.772 4.77315 24.7503 4.62106V2.00616C24.772 1.85407 24.758 1.69902 24.7095 1.55326C24.661 1.40752 24.5793 1.27509 24.4709 1.16645C24.3624 1.05781 24.2301 0.975967 24.0847 0.927377C23.9392 0.878788 23.7844 0.864794 23.6325 0.886513H19.9065C19.7547 0.864794 19.5999 0.878788 19.4544 0.927377C19.3089 0.975967 19.1766 1.05781 19.0682 1.16645C18.9597 1.27509 18.878 1.40752 18.8295 1.55326C18.781 1.69902 18.767 1.85407 18.7887 2.00616V4.62106ZM33.7599 0.515671V4.62106C33.7817 4.77315 33.7677 4.92821 33.7192 5.07395C33.6707 5.21969 33.5889 5.35213 33.4805 5.46076C33.372 5.5694 33.2398 5.65126 33.0943 5.69984C32.9488 5.74843 32.794 5.76242 32.6422 5.74071H28.9161C28.7643 5.76242 28.6095 5.74843 28.464 5.69984C28.3185 5.65126 28.1863 5.5694 28.0778 5.46076C27.9693 5.35213 27.8876 5.21969 27.8391 5.07395C27.7906 4.92821 27.7766 4.77315 27.7984 4.62106V0.515671H27.4257V4.62106C27.3968 4.82385 27.4154 5.03062 27.4801 5.22498C27.5447 5.41933 27.6536 5.59594 27.7982 5.7408C27.9429 5.88565 28.1192 5.99479 28.3132 6.05955C28.5073 6.12432 28.7137 6.14293 28.9161 6.11393H32.6422C32.8446 6.14293 33.051 6.12432 33.2451 6.05955C33.4391 5.99479 33.6154 5.88565 33.7601 5.7408C33.9047 5.59594 34.0136 5.41933 34.0782 5.22498C34.1429 5.03062 34.1615 4.82385 34.1326 4.62106V0.515671H33.7599ZM41.651 0.515667C41.8534 0.486658 42.0598 0.505271 42.2539 0.570033C42.4479 0.634795 42.6242 0.743932 42.7689 0.888797C42.9135 1.03365 43.0224 1.21025 43.0871 1.40461C43.1518 1.59897 43.1704 1.80574 43.1414 2.00854C43.1704 2.21133 43.1518 2.4181 43.0871 2.61245C43.0224 2.80681 42.9135 2.98342 42.7689 3.12827C42.6242 3.27313 42.4479 3.38227 42.2539 3.44703C42.0598 3.5118 41.8534 3.53041 41.651 3.5014H36.8072V6.1163H36.4345V0.518044L41.651 0.515667ZM42.728 1.55564C42.7765 1.70139 42.7905 1.85644 42.7687 2.00854H42.7695C42.7913 2.1607 42.7773 2.31584 42.7288 2.46166C42.6802 2.60747 42.5984 2.73995 42.4899 2.84861C42.3813 2.95726 42.249 3.03909 42.1033 3.08763C41.9578 3.13615 41.8029 3.15003 41.651 3.12819H36.8072V0.888886H41.651C41.8028 0.867166 41.9576 0.88116 42.1031 0.929749C42.2486 0.978339 42.3809 1.06019 42.4893 1.16882C42.5978 1.27746 42.6795 1.40989 42.728 1.55564ZM46.7589 6.11392C46.5565 6.14293 46.3501 6.12432 46.156 6.05955C45.962 5.99479 45.7857 5.88565 45.641 5.74079C45.4964 5.59594 45.3875 5.41933 45.3229 5.22498C45.2582 5.03062 45.2396 4.82385 45.2685 4.62105H45.6412C45.6195 4.77315 45.6335 4.9282 45.6819 5.07395C45.7304 5.21969 45.8122 5.35213 45.9206 5.46076C46.0291 5.5694 46.1613 5.65125 46.3068 5.69984C46.4523 5.74843 46.6071 5.76242 46.7589 5.74071H50.485C50.6368 5.76242 50.7916 5.74843 50.9371 5.69984C51.0826 5.65125 51.2148 5.5694 51.3233 5.46076C51.4318 5.35213 51.5135 5.21969 51.562 5.07395C51.6105 4.9282 51.6245 4.77315 51.6028 4.62105C51.6245 4.46896 51.6105 4.31391 51.562 4.16815C51.5135 4.02241 51.4318 3.88998 51.3233 3.78134C51.2148 3.67271 51.0826 3.59086 50.9371 3.54227C50.7916 3.49368 50.6368 3.47968 50.485 3.5014H46.7589C46.5565 3.53041 46.3501 3.5118 46.156 3.44703C45.962 3.38227 45.7857 3.27313 45.641 3.12827C45.4964 2.98342 45.3875 2.80681 45.3229 2.61245C45.2582 2.4181 45.2396 2.21133 45.2685 2.00854C45.2396 1.80574 45.2582 1.59897 45.3229 1.40461C45.3875 1.21025 45.4964 1.03365 45.641 0.888797C45.7857 0.743932 45.962 0.634795 46.156 0.570033C46.3501 0.505271 46.5565 0.486658 46.7589 0.515667H50.485C50.6874 0.486792 50.8937 0.505509 51.0876 0.570334C51.2815 0.63516 51.4578 0.744312 51.6023 0.889154C51.7468 1.034 51.8557 1.21056 51.9203 1.40484C51.9849 1.59912 52.0035 1.80581 51.9745 2.00854H51.6019C51.6237 1.85644 51.6097 1.70139 51.5612 1.55564C51.5127 1.40989 51.431 1.27746 51.3225 1.16882C51.2141 1.06018 51.0818 0.978337 50.9363 0.929748C50.7908 0.881158 50.636 0.867165 50.4842 0.888884H46.7581C46.6063 0.867165 46.4515 0.881158 46.306 0.929748C46.1606 0.978337 46.0283 1.06018 45.9198 1.16882C45.8114 1.27746 45.7296 1.40989 45.6812 1.55564C45.6327 1.70139 45.6187 1.85644 45.6404 2.00854C45.6187 2.16063 45.6327 2.31568 45.6812 2.46143C45.7296 2.60717 45.8114 2.73961 45.9198 2.84824C46.0283 2.95688 46.1606 3.03873 46.306 3.08732C46.4515 3.13591 46.6063 3.1499 46.7581 3.12819H50.4842C50.6866 3.09918 50.893 3.11779 51.0871 3.18255C51.2811 3.24732 51.4574 3.35645 51.6021 3.50132C51.7467 3.64617 51.8556 3.82277 51.9203 4.01713C51.985 4.21149 52.0036 4.41826 51.9745 4.62105C52.0036 4.82385 51.985 5.03062 51.9203 5.22498C51.8556 5.41933 51.7467 5.59594 51.6021 5.74079C51.4574 5.88565 51.2811 5.99479 51.0871 6.05955C50.893 6.12432 50.6866 6.14293 50.4842 6.11392H46.7589ZM54.65 6.11393V3.49903H60.6132V6.11393H60.9858V0.515671H60.6132V3.13057H54.65V0.515671H54.2774V6.11393H54.65ZM64.7759 6.11393C64.5735 6.14266 64.3673 6.12384 64.1734 6.05896C63.9796 5.99407 63.8035 5.88489 63.6591 5.74007C63.5146 5.59524 63.4058 5.41875 63.3412 5.22453C63.2767 5.03031 63.2581 4.82371 63.287 4.62106V2.00616C63.258 1.80337 63.2766 1.5966 63.3413 1.40224C63.4059 1.20788 63.5149 1.03128 63.6595 0.886425C63.8042 0.74156 63.9804 0.632424 64.1745 0.567661C64.3685 0.502899 64.5749 0.484286 64.7774 0.513295H68.5081C68.7106 0.484286 68.917 0.502899 69.1111 0.567661C69.3051 0.632424 69.4814 0.74156 69.6261 0.886425C69.7707 1.03128 69.8796 1.20788 69.9442 1.40224C70.0089 1.5966 70.0275 1.80337 69.9986 2.00616V4.62106C70.0275 4.82386 70.0089 5.03062 69.9442 5.22498C69.8796 5.41933 69.7707 5.59594 69.6261 5.7408C69.4814 5.88565 69.3051 5.99479 69.1111 6.05955C68.917 6.12432 68.7106 6.14294 68.5081 6.11393H64.7759ZM63.6988 5.07395C63.6503 4.9282 63.6363 4.77315 63.6581 4.62106L63.6643 2.00854C63.6426 1.85644 63.6566 1.70139 63.7051 1.55564C63.7536 1.40989 63.8353 1.27746 63.9438 1.16882C64.0523 1.06019 64.1845 0.978339 64.33 0.929749C64.4755 0.88116 64.6303 0.867166 64.7821 0.888886H68.5081C68.6598 0.867253 68.8143 0.881223 68.9597 0.929686C69.1049 0.978149 69.237 1.05978 69.3454 1.16813C69.4538 1.27648 69.5356 1.40859 69.5842 1.55403C69.6329 1.69946 69.6472 1.85425 69.626 2.00616V4.62106C69.6477 4.77315 69.6337 4.9282 69.5852 5.07395C69.5367 5.21969 69.455 5.35213 69.3465 5.46076C69.238 5.5694 69.1058 5.65125 68.9603 5.69984C68.8148 5.74843 68.66 5.76242 68.5081 5.74071H64.7759C64.624 5.76242 64.4692 5.74843 64.3237 5.69984C64.1782 5.65125 64.0459 5.5694 63.9375 5.46076C63.829 5.35213 63.7473 5.21969 63.6988 5.07395ZM77.5115 0.515667C77.7139 0.486658 77.9203 0.505271 78.1143 0.570033C78.3084 0.634795 78.4847 0.743932 78.6293 0.888797C78.7741 1.03365 78.8833 1.21025 78.9474 1.40461C79.0122 1.59897 79.0304 1.80574 79.0019 2.00854C79.0304 2.21133 79.0122 2.4181 78.9474 2.61245C78.8833 2.80681 78.7741 2.98342 78.6293 3.12827C78.4847 3.27313 78.3084 3.38227 78.1143 3.44703C77.9203 3.5118 77.7139 3.53041 77.5115 3.5014H72.6693V6.1163H72.2967V0.518044L77.5115 0.515667ZM78.5884 1.55564C78.6373 1.70139 78.6507 1.85644 78.6293 2.00854H78.6341C78.6554 2.16093 78.642 2.31631 78.5931 2.46234C78.5444 2.60836 78.4624 2.741 78.3536 2.8497C78.2447 2.95841 78.1121 3.04018 77.9662 3.08853C77.8202 3.13687 77.6651 3.15045 77.513 3.12819H72.6693V0.888886H77.5115C77.6633 0.867166 77.8181 0.88116 77.9636 0.929749C78.109 0.978339 78.2413 1.06019 78.3498 1.16882C78.4582 1.27746 78.5399 1.40989 78.5884 1.55564Z" fill="white"/>
<path d="M19.9081 6.11393V5.86393H19.8903L19.8726 5.86646L19.9081 6.11393ZM19.3052 6.05955L19.3843 5.82241L19.3843 5.82241L19.3052 6.05955ZM23.6341 6.11393L23.6695 5.86645L23.6519 5.86393H23.6341V6.11393ZM24.237 6.05955L24.1579 5.82241L24.1579 5.82241L24.237 6.05955ZM24.752 5.7408L24.9289 5.91747L24.929 5.91742L24.752 5.7408ZM25.0702 5.22498L24.833 5.14601L24.833 5.14609L25.0702 5.22498ZM25.1245 4.62106H24.8745V4.63886L24.877 4.65649L25.1245 4.62106ZM25.1245 2.00616L24.877 1.97074L24.8745 1.98836V2.00616H25.1245ZM25.0702 1.40224L24.833 1.48113L24.833 1.48122L25.0702 1.40224ZM24.752 0.886425L24.929 0.709799L24.9289 0.709757L24.752 0.886425ZM24.237 0.567661L24.1579 0.804803L24.1579 0.804804L24.237 0.567661ZM23.6341 0.513295V0.763295H23.6519L23.6695 0.760769L23.6341 0.513295ZM19.9081 0.513295L19.8726 0.760767L19.8903 0.763295H19.9081V0.513295ZM19.3052 0.567661L19.2261 0.330519L19.2261 0.330519L19.3052 0.567661ZM18.7902 0.886425L18.6133 0.709756L18.6133 0.7098L18.7902 0.886425ZM18.472 1.40224L18.7092 1.48122L18.7093 1.48113L18.472 1.40224ZM18.4177 2.00616H18.6677V1.98841L18.6652 1.97083L18.4177 2.00616ZM18.4177 4.62106L18.6652 4.65639L18.6677 4.63882V4.62106H18.4177ZM18.472 5.22498L18.7093 5.14609L18.7092 5.14601L18.472 5.22498ZM18.7902 5.7408L18.6133 5.91742L18.6133 5.91747L18.7902 5.7408ZM5.61725 0.515672L5.61709 0.765672L5.63499 0.765684L5.65271 0.763145L5.61725 0.515672ZM6.22017 0.570039L6.29932 0.332899L6.29932 0.332898L6.22017 0.570039ZM1.88652 0.513295L1.85106 0.760768L1.86862 0.763284L1.88636 0.763295L1.88652 0.513295ZM1.2836 0.567661L1.36274 0.804802L1.2836 0.567661ZM0.768634 0.886425L0.945552 1.06306L0.945562 1.06305L0.768634 0.886425ZM0.450398 1.40224L0.213182 1.32332L0.213179 1.32333L0.450398 1.40224ZM0.396122 2.00616H0.646122V1.9884L0.643611 1.97082L0.396122 2.00616ZM0.396122 4.62106L0.643604 4.65645L0.646122 4.63884V4.62106H0.396122ZM0.450437 5.22543L0.687641 5.14647L0.450437 5.22543ZM0.769092 5.74153L0.592261 5.91825L0.592266 5.91825L0.769092 5.74153ZM1.28467 6.06015L1.36362 5.82295L1.36361 5.82295L1.28467 6.06015ZM1.8881 6.11393V5.86393H1.87013L1.85234 5.8665L1.8881 6.11393ZM5.61725 6.11393L5.65203 5.86636L5.63472 5.86393H5.61725V6.11393ZM6.21847 6.05842L6.13896 5.8214L6.13896 5.8214L6.21847 6.05842ZM6.73181 5.74004L6.90878 5.91663L6.90878 5.91663L6.73181 5.74004ZM7.04939 5.22569L7.28653 5.30484L7.28653 5.30483L7.04939 5.22569ZM7.10448 4.62344H6.85448V4.64092L6.85691 4.65824L7.10448 4.62344ZM7.10448 3.13057H7.35448V2.88057H7.10448V3.13057ZM3.37849 3.13057V2.88057H3.12849V3.13057H3.37849ZM3.37849 3.50379H3.12849V3.75379H3.37849V3.50379ZM6.73505 3.50379H6.98505V3.25379H6.73505V3.50379ZM6.73505 4.62344H6.48505V4.64116L6.48755 4.65871L6.73505 4.62344ZM6.45557 5.46314L6.27865 5.28651L6.27864 5.28652L6.45557 5.46314ZM6.06939 5.70222L6.14858 5.93935L6.14858 5.93935L6.06939 5.70222ZM5.61725 5.74309L5.65264 5.4956L5.63503 5.49309H5.61725V5.74309ZM1.8881 5.74309V5.49309H1.87032L1.85271 5.4956L1.8881 5.74309ZM1.43595 5.70222L1.35676 5.93935L1.35677 5.93935L1.43595 5.70222ZM1.04978 5.46314L1.2267 5.28651L1.2267 5.28651L1.04978 5.46314ZM0.770303 4.62344L1.0178 4.65872L1.0203 4.64117V4.62344H0.770303ZM0.770303 2.00854H1.0203V1.99081L1.0178 1.97326L0.770303 2.00854ZM0.811099 1.55564L0.573893 1.47669L0.573891 1.47669L0.811099 1.55564ZM1.04978 1.16883L0.872852 0.992196L0.872846 0.992202L1.04978 1.16883ZM1.43595 0.929753L1.35677 0.692624L1.35676 0.692626L1.43595 0.929753ZM1.8881 0.888889L1.8527 1.13637L1.87031 1.13889H1.8881V0.888889ZM5.61725 0.888889V1.13889H5.63473L5.65203 1.13646L5.61725 0.888889ZM6.06863 0.930649L6.14824 0.693661L6.14823 0.69366L6.06863 0.930649ZM6.45389 1.16991L6.27678 1.34635L6.45389 1.16991ZM6.69194 1.55632L6.45471 1.63519V1.63519L6.69194 1.55632ZM6.73267 2.00854L6.48516 1.97336L6.44462 2.25854H6.73267V2.00854ZM7.10765 2.00854V2.25854H7.32448L7.35513 2.04388L7.10765 2.00854ZM7.05336 1.40462L6.81614 1.48353L6.81614 1.48354L7.05336 1.40462ZM6.73513 0.888802L6.5582 1.06543L6.55821 1.06543L6.73513 0.888802ZM14.6268 0.515667L14.627 0.765667L14.6447 0.765656L14.6623 0.763141L14.6268 0.515667ZM15.2298 0.570033L15.3089 0.332891L15.3089 0.332891L15.2298 0.570033ZM9.40728 0.518837L9.40713 0.268837L9.15728 0.268988V0.518837H9.40728ZM9.40728 6.11709H9.15728V6.36709H9.40728V6.11709ZM9.77988 6.11709V6.36709H10.0299V6.11709H9.77988ZM9.77988 3.5022V3.2522H9.52988V3.5022H9.77988ZM14.6252 3.5022V3.7522H14.643L14.6606 3.74968L14.6252 3.5022ZM15.0774 3.54306L14.9982 3.78018L15.0774 3.54306ZM15.4636 3.78213L15.6406 3.6055L15.6406 3.6055L15.4636 3.78213ZM15.7023 4.16895L15.9395 4.09002L15.9395 4.09002L15.7023 4.16895ZM15.743 4.62185L15.4956 4.58645L15.493 4.60406V4.62185H15.743ZM15.743 6.11472H15.493V6.36472H15.743V6.11472ZM16.1172 6.11472V6.36472H16.3672V6.11472H16.1172ZM16.1172 4.62185L15.8691 4.59139L15.8672 4.60656V4.62185H16.1172ZM15.9961 3.87762L15.7704 3.98514L15.7704 3.98514L15.9961 3.87762ZM15.4946 3.31519L15.3621 3.10322L15.0231 3.3152L15.3621 3.52716L15.4946 3.31519ZM15.9961 2.75277L16.2218 2.86029L16.2218 2.86029L15.9961 2.75277ZM16.1172 2.00854L15.8697 1.97311L15.865 2.00601L15.8691 2.03899L16.1172 2.00854ZM16.063 1.40461L15.8257 1.4835L15.8258 1.48359L16.063 1.40461ZM15.7448 0.888797L15.9217 0.712172L15.9217 0.712128L15.7448 0.888797ZM15.7023 1.55564L15.9395 1.47671L15.9395 1.47671L15.7023 1.55564ZM15.743 2.00854L15.4956 1.97314L15.4905 2.00852L15.4956 2.0439L15.743 2.00854ZM15.4636 1.16882L15.2867 1.34545L15.2867 1.34545L15.4636 1.16882ZM15.0774 0.929749L15.1566 0.692626L15.1566 0.692626L15.0774 0.929749ZM14.6252 0.888886V1.13889H14.643L14.6606 1.13637L14.6252 0.888886ZM9.77988 0.888886V0.638886H9.52988V0.888886H9.77988ZM9.77988 3.12819H9.52988V3.37819H9.77988V3.12819ZM14.6237 3.12819L14.6595 2.88076L14.6417 2.87819H14.6237V3.12819ZM15.0763 3.08793L14.9974 2.85071L14.9974 2.85071L15.0763 3.08793ZM15.4632 2.84897L15.6399 3.02577L15.64 3.0257L15.4632 2.84897ZM15.7022 2.46188L15.4651 2.38279L15.465 2.38291L15.7022 2.46188ZM18.8295 5.07395L19.0667 4.99503V4.99502L18.8295 5.07395ZM18.7887 4.62106L19.0362 4.65633L19.0387 4.63879V4.62106H18.7887ZM19.0682 5.46077L19.2451 5.28414L19.2451 5.28413L19.0682 5.46077ZM19.4544 5.69985L19.3752 5.93697L19.3752 5.93697L19.4544 5.69985ZM19.9065 5.74071V5.49071H19.8887L19.8711 5.49323L19.9065 5.74071ZM23.6325 5.74071L23.6679 5.49323L23.6503 5.49071H23.6325V5.74071ZM24.0847 5.69985L24.0055 5.46272H24.0055L24.0847 5.69985ZM24.4709 5.46077L24.294 5.28413L24.294 5.28414L24.4709 5.46077ZM24.7095 5.07395L24.9468 5.15288L24.9468 5.15288L24.7095 5.07395ZM24.7503 4.62106H24.5003V4.63885L24.5028 4.65646L24.7503 4.62106ZM24.7503 2.00616L24.5028 1.97076L24.5003 1.98837V2.00616H24.7503ZM24.7095 1.55326L24.9468 1.47434L24.9468 1.47434L24.7095 1.55326ZM24.4709 1.16645L24.6478 0.989821L24.6478 0.989819L24.4709 1.16645ZM24.0847 0.927377L24.0055 1.1645L24.0055 1.1645L24.0847 0.927377ZM23.6325 0.886513V1.13651H23.6503L23.6679 1.134L23.6325 0.886513ZM19.9065 0.886513L19.8711 1.13399L19.8887 1.13651H19.9065V0.886513ZM19.4544 0.927377L19.3752 0.690253L19.3752 0.690253L19.4544 0.927377ZM19.0682 1.16645L18.8913 0.989819L18.8913 0.989821L19.0682 1.16645ZM18.8295 1.55326L18.5923 1.47434V1.47434L18.8295 1.55326ZM18.7887 2.00616H19.0387V1.98844L19.0362 1.97089L18.7887 2.00616ZM33.7599 4.62106H33.5099V4.63885L33.5124 4.65646L33.7599 4.62106ZM33.7599 0.515671V0.265671H33.5099V0.515671H33.7599ZM33.7192 5.07395L33.9564 5.15288V5.15288L33.7192 5.07395ZM33.4805 5.46076L33.3036 5.28413L33.3036 5.28413L33.4805 5.46076ZM33.0943 5.69984L33.0151 5.46272L33.0151 5.46272L33.0943 5.69984ZM32.6422 5.74071L32.6776 5.49323L32.66 5.49071H32.6422V5.74071ZM28.9161 5.74071V5.49071H28.8983L28.8807 5.49323L28.9161 5.74071ZM28.464 5.69984L28.3848 5.93697L28.3848 5.93697L28.464 5.69984ZM28.0778 5.46076L28.2547 5.28413L28.2547 5.28413L28.0778 5.46076ZM27.7984 4.62106L28.0459 4.65646L28.0484 4.63885V4.62106H27.7984ZM27.7984 0.515671H28.0484V0.265671H27.7984V0.515671ZM27.4257 0.515671V0.265671H27.1757V0.515671H27.4257ZM27.4257 4.62106L27.6732 4.65639L27.6757 4.63881V4.62106H27.4257ZM27.4801 5.22498L27.7173 5.14609L27.7173 5.14601L27.4801 5.22498ZM27.7982 5.7408L27.6213 5.91742L27.6214 5.91747L27.7982 5.7408ZM28.3132 6.05955L28.3924 5.82241L28.3924 5.82241L28.3132 6.05955ZM28.9161 6.11393V5.86393H28.8983L28.8806 5.86645L28.9161 6.11393ZM32.6422 6.11393L32.6776 5.86645L32.66 5.86393H32.6422V6.11393ZM33.2451 6.05955L33.1659 5.82241L33.1659 5.82241L33.2451 6.05955ZM33.7601 5.7408L33.9369 5.91747L33.937 5.91742L33.7601 5.7408ZM34.0782 5.22498L33.841 5.14601L33.841 5.14609L34.0782 5.22498ZM34.1326 4.62106H33.8826V4.63881L33.8851 4.65639L34.1326 4.62106ZM34.1326 0.515671H34.3826V0.265671H34.1326V0.515671ZM42.2539 0.570033L42.1747 0.807175V0.807175L42.2539 0.570033ZM41.651 0.515667L41.6511 0.765667L41.6689 0.765659L41.6865 0.763139L41.651 0.515667ZM42.7689 0.888797L42.9458 0.712173L42.9458 0.712129L42.7689 0.888797ZM43.0871 1.40461L42.8498 1.4835L42.8499 1.48358L43.0871 1.40461ZM43.1414 2.00854L42.8939 1.9732L42.8889 2.00854L42.8939 2.04387L43.1414 2.00854ZM43.0871 2.61245L42.8499 2.53347L42.8498 2.53356L43.0871 2.61245ZM42.7689 3.12827L42.9458 3.30495L42.9458 3.3049L42.7689 3.12827ZM42.2539 3.44703L42.1747 3.20989L42.1747 3.20989L42.2539 3.44703ZM41.651 3.5014L41.6865 3.25393L41.6688 3.2514H41.651V3.5014ZM36.8072 3.5014V3.2514H36.5572V3.5014H36.8072ZM36.8072 6.1163V6.3663H37.0572V6.1163H36.8072ZM36.4345 6.1163H36.1845V6.3663H36.4345V6.1163ZM36.4345 0.518044L36.4344 0.268044L36.1845 0.268158V0.518044H36.4345ZM42.7687 2.00854L42.5212 1.97314L42.4804 2.25854H42.7687V2.00854ZM42.728 1.55564L42.9652 1.47671L42.9652 1.47671L42.728 1.55564ZM42.7695 2.00854L43.017 1.97315L42.9863 1.75854H42.7695V2.00854ZM42.7288 2.46166L42.966 2.54067L42.966 2.54056L42.7288 2.46166ZM42.4899 2.84861L42.6667 3.02529L42.6667 3.02529L42.4899 2.84861ZM42.1033 3.08763L42.0243 2.85045L42.0243 2.85046L42.1033 3.08763ZM41.651 3.12819L41.6866 2.88073L41.6689 2.87819H41.651V3.12819ZM36.8072 3.12819H36.5572V3.37819H36.8072V3.12819ZM36.8072 0.888886V0.638886H36.5572V0.888886H36.8072ZM41.651 0.888886V1.13889H41.6688L41.6864 1.13637L41.651 0.888886ZM42.1031 0.929749L42.0239 1.16687L42.0239 1.16687L42.1031 0.929749ZM42.4893 1.16882L42.3124 1.34545L42.3124 1.34545L42.4893 1.16882ZM46.156 6.05955L46.2352 5.82241L46.2352 5.82241L46.156 6.05955ZM46.7589 6.11392V5.86392H46.7411L46.7235 5.86645L46.7589 6.11392ZM45.641 5.74079L45.4641 5.91742L45.4642 5.91747L45.641 5.74079ZM45.3229 5.22498L45.5601 5.14609L45.5601 5.14601L45.3229 5.22498ZM45.2685 4.62105V4.37105H45.0517L45.021 4.58572L45.2685 4.62105ZM45.6412 4.62105L45.8887 4.65645L45.9295 4.37105H45.6412V4.62105ZM45.6819 5.07395L45.9192 4.99502V4.99501L45.6819 5.07395ZM45.9206 5.46076L46.0975 5.28413L46.0975 5.28413L45.9206 5.46076ZM46.3068 5.69984L46.386 5.46272L46.386 5.46272L46.3068 5.69984ZM46.7589 5.74071V5.49071H46.7411L46.7235 5.49322L46.7589 5.74071ZM50.485 5.74071L50.5204 5.49322L50.5028 5.49071H50.485V5.74071ZM50.9371 5.69984L51.0163 5.93697L51.0163 5.93697L50.9371 5.69984ZM51.3233 5.46076L51.1464 5.28413L51.1464 5.28413L51.3233 5.46076ZM51.6028 4.62105L51.3553 4.58578L51.3503 4.62105L51.3553 4.65633L51.6028 4.62105ZM51.562 4.16815L51.7992 4.08923L51.7992 4.08923L51.562 4.16815ZM51.3233 3.78134L51.5002 3.60471L51.5002 3.6047L51.3233 3.78134ZM50.9371 3.54227L51.0163 3.30514L51.0163 3.30514L50.9371 3.54227ZM50.485 3.5014V3.7514H50.5028L50.5204 3.74888L50.485 3.5014ZM46.7589 3.5014V3.2514H46.7411L46.7235 3.25393L46.7589 3.5014ZM46.156 3.44703L46.2352 3.20989L46.2352 3.20989L46.156 3.44703ZM45.641 3.12827L45.4641 3.3049L45.4642 3.30495L45.641 3.12827ZM45.3229 2.61245L45.5601 2.53356L45.5601 2.53347L45.3229 2.61245ZM45.2685 2.00854L45.516 2.04387L45.5211 2.00854L45.516 1.9732L45.2685 2.00854ZM45.3229 1.40461L45.5601 1.48359L45.5601 1.4835L45.3229 1.40461ZM45.641 0.888797L45.4642 0.712129L45.4641 0.712173L45.641 0.888797ZM46.156 0.570033L46.2352 0.807176V0.807175L46.156 0.570033ZM46.7589 0.515667L46.7235 0.763139L46.7411 0.765667H46.7589V0.515667ZM50.485 0.515667V0.765667H50.5027L50.5203 0.76316L50.485 0.515667ZM51.0876 0.570334L51.1669 0.333234L51.1669 0.333226L51.0876 0.570334ZM51.6023 0.889154L51.7793 0.712616L51.7793 0.712566L51.6023 0.889154ZM51.9203 1.40484L52.1576 1.32601L52.1576 1.32593L51.9203 1.40484ZM51.9745 2.00854V2.25854H52.1914L52.222 2.04388L51.9745 2.00854ZM51.6019 2.00854L51.3544 1.97314L51.3136 2.25854H51.6019V2.00854ZM51.5612 1.55564L51.324 1.63456V1.63456L51.5612 1.55564ZM51.3225 1.16882L51.4994 0.992192L51.4994 0.992189L51.3225 1.16882ZM50.9363 0.929748L50.8571 1.16687L50.8571 1.16687L50.9363 0.929748ZM50.4842 0.888884V1.13888H50.502L50.5196 1.13636L50.4842 0.888884ZM46.7581 0.888884L46.7227 1.13636L46.7403 1.13888H46.7581V0.888884ZM46.306 0.929748L46.2268 0.692624L46.2268 0.692625L46.306 0.929748ZM45.9198 1.16882L46.0967 1.34545L46.0968 1.34545L45.9198 1.16882ZM45.6812 1.55564L45.4439 1.47671L45.4439 1.47671L45.6812 1.55564ZM45.6404 2.00854L45.8879 2.04393L45.893 2.00854L45.8879 1.97314L45.6404 2.00854ZM45.6812 2.46143L45.4439 2.54035V2.54035L45.6812 2.46143ZM45.9198 2.84824L46.0968 2.67161L46.0967 2.6716L45.9198 2.84824ZM46.306 3.08732L46.2268 3.32445L46.2268 3.32445L46.306 3.08732ZM46.7581 3.12819V2.87819H46.7403L46.7227 2.8807L46.7581 3.12819ZM50.4842 3.12819V3.37819H50.502L50.5197 3.37566L50.4842 3.12819ZM51.0871 3.18255L51.1662 2.94541L51.1662 2.94541L51.0871 3.18255ZM51.6021 3.50132L51.779 3.32469L51.779 3.32465L51.6021 3.50132ZM51.9203 4.01713L51.683 4.09602L51.6831 4.0961L51.9203 4.01713ZM51.9745 4.62105L51.727 4.58562L51.722 4.62105L51.727 4.65649L51.9745 4.62105ZM51.9203 5.22498L51.6831 5.14601L51.683 5.14609L51.9203 5.22498ZM51.6021 5.74079L51.779 5.91747L51.779 5.91742L51.6021 5.74079ZM51.0871 6.05955L51.0079 5.82241L51.0079 5.82241L51.0871 6.05955ZM50.4842 6.11392L50.5197 5.86645L50.502 5.86392H50.4842V6.11392ZM54.65 3.49903V3.24903H54.4V3.49903H54.65ZM54.65 6.11393V6.36393H54.9V6.11393H54.65ZM60.6132 3.49903H60.8632V3.24903H60.6132V3.49903ZM60.6132 6.11393H60.3632V6.36393H60.6132V6.11393ZM60.9858 6.11393V6.36393H61.2358V6.11393H60.9858ZM60.9858 0.515671H61.2358V0.265671H60.9858V0.515671ZM60.6132 0.515671V0.265671H60.3632V0.515671H60.6132ZM60.6132 3.13057V3.38057H60.8632V3.13057H60.6132ZM54.65 3.13057H54.4V3.38057H54.65V3.13057ZM54.65 0.515671H54.9V0.265671H54.65V0.515671ZM54.2774 0.515671V0.265671H54.0274V0.515671H54.2774ZM54.2774 6.11393H54.0274V6.36393H54.2774V6.11393ZM64.1734 6.05896L64.094 6.29603L64.094 6.29604L64.1734 6.05896ZM64.7759 6.11393V5.86393H64.7582L64.7407 5.86641L64.7759 6.11393ZM63.6591 5.74007L63.8361 5.56357L63.8361 5.56352L63.6591 5.74007ZM63.3412 5.22453L63.104 5.30338V5.30338L63.3412 5.22453ZM63.287 4.62106L63.5345 4.65642L63.537 4.63883V4.62106H63.287ZM63.287 2.00616H63.537V1.98836L63.5345 1.97073L63.287 2.00616ZM63.3413 1.40224L63.5785 1.48121L63.5785 1.48113L63.3413 1.40224ZM63.6595 0.886425L63.4826 0.709755L63.4826 0.709801L63.6595 0.886425ZM64.1745 0.567661L64.2536 0.804804V0.804803L64.1745 0.567661ZM64.7774 0.513295L64.742 0.760769L64.7596 0.763295H64.7774V0.513295ZM68.5081 0.513295V0.763295H68.5259L68.5435 0.760769L68.5081 0.513295ZM69.1111 0.567661L69.0319 0.804804L69.1111 0.567661ZM69.6261 0.886425L69.803 0.709796L69.8029 0.709759L69.6261 0.886425ZM69.9442 1.40224L69.707 1.48113L69.707 1.48122L69.9442 1.40224ZM69.9986 2.00616L69.7511 1.97083L69.7486 1.98841V2.00616H69.9986ZM69.9986 4.62106H69.7486V4.63882L69.7511 4.65639L69.9986 4.62106ZM69.9442 5.22498L69.707 5.14601L69.707 5.14609L69.9442 5.22498ZM69.6261 5.7408L69.8029 5.91747L69.803 5.91743L69.6261 5.7408ZM69.1111 6.05955L69.0319 5.82241L69.0319 5.82241L69.1111 6.05955ZM68.5081 6.11393L68.5435 5.86645L68.5259 5.86393H68.5081V6.11393ZM63.6581 4.62106L63.9055 4.65646L63.908 4.63914L63.9081 4.62165L63.6581 4.62106ZM63.6988 5.07395L63.936 4.99502V4.99502L63.6988 5.07395ZM63.6643 2.00854L63.9143 2.00913L63.9144 1.99111L63.9118 1.97326L63.6643 2.00854ZM63.7051 1.55564L63.9423 1.63456V1.63456L63.7051 1.55564ZM63.9438 1.16882L63.7669 0.99219L63.7669 0.992193L63.9438 1.16882ZM64.33 0.929749L64.4092 1.16687V1.16687L64.33 0.929749ZM64.7821 0.888886L64.7467 1.13637L64.7643 1.13889H64.7821V0.888886ZM68.5081 0.888886V1.13889H68.5258L68.5434 1.13638L68.5081 0.888886ZM68.9597 0.929686L69.0388 0.692539L69.0387 0.692527L68.9597 0.929686ZM69.3454 1.16813L69.5221 0.991337L69.5221 0.991331L69.3454 1.16813ZM69.5842 1.55403L69.3471 1.63334L69.3472 1.63346L69.5842 1.55403ZM69.626 2.00616L69.3784 1.9716L69.376 1.9888V2.00616H69.626ZM69.626 4.62106H69.376V4.63878L69.3785 4.65633L69.626 4.62106ZM69.3465 5.46076L69.1696 5.28412V5.28413L69.3465 5.46076ZM68.5081 5.74071L68.5435 5.49322L68.5259 5.49071H68.5081V5.74071ZM64.7759 5.74071V5.49071H64.7581L64.7405 5.49322L64.7759 5.74071ZM63.9375 5.46076L64.1144 5.28413L64.1144 5.28413L63.9375 5.46076ZM78.1143 0.570033L78.0352 0.807175L78.0352 0.807175L78.1143 0.570033ZM77.5115 0.515667L77.5116 0.765667L77.5293 0.765659L77.5469 0.763139L77.5115 0.515667ZM78.6293 0.888797L78.4525 1.06547L78.4525 1.06552L78.6293 0.888797ZM78.9474 1.40461L78.7099 1.48289L78.7102 1.48377L78.9474 1.40461ZM79.0019 2.00854L78.7544 1.97377L78.7495 2.00854L78.7544 2.0433L79.0019 2.00854ZM78.9474 2.61245L78.7102 2.53329L78.7099 2.53417L78.9474 2.61245ZM78.6293 3.12827L78.4525 2.95155L78.4525 2.9516L78.6293 3.12827ZM78.1143 3.44703L78.0352 3.20989L78.0352 3.20989L78.1143 3.44703ZM77.5115 3.5014L77.5469 3.25393L77.5293 3.2514H77.5115V3.5014ZM72.6693 3.5014V3.2514H72.4193V3.5014H72.6693ZM72.6693 6.1163V6.3663H72.9193V6.1163H72.6693ZM72.2967 6.1163H72.0467V6.3663H72.2967V6.1163ZM72.2967 0.518044L72.2966 0.268044L72.0467 0.268158V0.518044H72.2967ZM78.6293 2.00854L78.3818 1.97378L78.3418 2.25854H78.6293V2.00854ZM78.5884 1.55564L78.3512 1.63456L78.3514 1.63503L78.5884 1.55564ZM78.6341 2.00854L78.8817 1.97383L78.8515 1.75854H78.6341V2.00854ZM78.5931 2.46234L78.356 2.38297L78.356 2.3832L78.5931 2.46234ZM78.3536 2.8497L78.1769 2.6728L78.1769 2.67281L78.3536 2.8497ZM77.9662 3.08853L78.0448 3.32585L78.0448 3.32584L77.9662 3.08853ZM77.513 3.12819L77.5493 2.88082L77.5312 2.87819H77.513V3.12819ZM72.6693 3.12819H72.4193V3.37819H72.6693V3.12819ZM72.6693 0.888886V0.638886H72.4193V0.888886H72.6693ZM77.5115 0.888886V1.13889H77.5293L77.5469 1.13637L77.5115 0.888886ZM77.9636 0.929749L78.0428 0.692626L78.0428 0.692625L77.9636 0.929749ZM78.3498 1.16882L78.1728 1.34545L78.1729 1.34545L78.3498 1.16882ZM19.8726 5.86646C19.7087 5.88995 19.5415 5.87488 19.3843 5.82241L19.226 6.29669C19.457 6.37377 19.7026 6.39593 19.9435 6.3614L19.8726 5.86646ZM23.6341 5.86393H19.9081V6.36393H23.6341V5.86393ZM24.1579 5.82241C24.0007 5.87488 23.8336 5.88995 23.6695 5.86645L23.5986 6.3614C23.8396 6.39592 24.0853 6.37377 24.3162 6.29669L24.1579 5.82241ZM24.5751 5.56412C24.4578 5.68157 24.315 5.76997 24.1579 5.82241L24.3162 6.2967C24.5471 6.21961 24.7568 6.08974 24.9289 5.91747L24.5751 5.56412ZM24.833 5.14609C24.7806 5.30366 24.6923 5.4468 24.5751 5.56417L24.929 5.91742C25.101 5.74508 25.2306 5.53501 25.3074 5.30387L24.833 5.14609ZM24.877 4.65649C24.9005 4.82086 24.8855 4.98846 24.833 5.14601L25.3074 5.30396C25.3844 5.07279 25.4065 4.82685 25.3719 4.58563L24.877 4.65649ZM24.8745 2.00616V4.62106H25.3745V2.00616H24.8745ZM24.833 1.48122C24.8855 1.63876 24.9005 1.80636 24.877 1.97074L25.3719 2.04159C25.4065 1.80037 25.3844 1.55444 25.3074 1.32327L24.833 1.48122ZM24.5751 1.06305C24.6923 1.18043 24.7806 1.32356 24.833 1.48113L25.3074 1.32336C25.2306 1.09221 25.101 0.882136 24.929 0.709799L24.5751 1.06305ZM24.1579 0.804804C24.315 0.857248 24.4578 0.945648 24.5751 1.06309L24.9289 0.709757C24.7568 0.537472 24.5471 0.4076 24.3162 0.330519L24.1579 0.804804ZM23.6695 0.760769C23.8336 0.737272 24.0007 0.752347 24.1579 0.804803L24.3162 0.330519C24.0853 0.253451 23.8396 0.231299 23.5986 0.265821L23.6695 0.760769ZM19.9081 0.763295H23.6341V0.263295H19.9081V0.763295ZM19.3843 0.804804C19.5415 0.752344 19.7087 0.737275 19.8726 0.760767L19.9435 0.265823C19.7026 0.231297 19.457 0.253454 19.2261 0.330519L19.3843 0.804804ZM18.9671 1.06309C19.0844 0.945648 19.2272 0.857247 19.3843 0.804803L19.2261 0.330519C18.9951 0.4076 18.7854 0.537472 18.6133 0.709756L18.9671 1.06309ZM18.7093 1.48113C18.7617 1.32356 18.85 1.18043 18.9671 1.06305L18.6133 0.7098C18.4412 0.882137 18.3117 1.09221 18.2348 1.32335L18.7093 1.48113ZM18.6652 1.97083C18.6417 1.80639 18.6568 1.63876 18.7092 1.48122L18.2348 1.32327C18.1579 1.55444 18.1358 1.80034 18.1702 2.0415L18.6652 1.97083ZM18.6677 4.62106V2.00616H18.1677V4.62106H18.6677ZM18.7092 5.14601C18.6568 4.98846 18.6417 4.82083 18.6652 4.65639L18.1702 4.58572C18.1358 4.82688 18.1579 5.07279 18.2348 5.30396L18.7092 5.14601ZM18.9671 5.56417C18.85 5.4468 18.7617 5.30366 18.7093 5.14609L18.2348 5.30387C18.3117 5.53501 18.4412 5.74508 18.6133 5.91742L18.9671 5.56417ZM19.3843 5.82241C19.2272 5.76997 19.0844 5.68157 18.9671 5.56412L18.6133 5.91747C18.7854 6.08974 18.9951 6.21961 19.2261 6.2967L19.3843 5.82241ZM5.65271 0.763145C5.81668 0.739651 5.98386 0.754724 6.14102 0.807179L6.29932 0.332898C6.06841 0.255829 5.82274 0.233675 5.58179 0.2682L5.65271 0.763145ZM1.88636 0.763295L5.61709 0.765672L5.61741 0.265673L1.88668 0.263295L1.88636 0.763295ZM1.36274 0.804802C1.51991 0.752347 1.68709 0.737274 1.85106 0.760768L1.92198 0.265823C1.68102 0.231298 1.43536 0.253452 1.20445 0.330521L1.36274 0.804802ZM0.945562 1.06305C1.06275 0.945661 1.20559 0.857255 1.36274 0.804802L1.20445 0.330521C0.973531 0.407592 0.763751 0.537459 0.591706 0.7098L0.945562 1.06305ZM0.687614 1.48116C0.740042 1.32358 0.828359 1.18044 0.945552 1.06306L0.591715 0.70979C0.419657 0.882124 0.29008 1.09219 0.213182 1.32332L0.687614 1.48116ZM0.643611 1.97082C0.620128 1.80638 0.635197 1.63873 0.687617 1.48115L0.213179 1.32333C0.136289 1.55447 0.114193 1.80035 0.148633 2.04151L0.643611 1.97082ZM0.646122 4.62106V2.00616H0.146122V4.62106H0.646122ZM0.687641 5.14647C0.635151 4.98879 0.62007 4.821 0.643604 4.65645L0.14864 4.58566C0.114124 4.82701 0.13624 5.07309 0.213234 5.30439L0.687641 5.14647ZM0.945924 5.5648C0.828575 5.44738 0.74013 5.30416 0.687641 5.14647L0.213234 5.30439C0.290229 5.53569 0.419996 5.74588 0.592261 5.91825L0.945924 5.5648ZM1.36361 5.82295C1.20628 5.77059 1.06326 5.68221 0.945919 5.5648L0.592266 5.91825C0.764536 6.09062 0.974575 6.22044 1.20573 6.29736L1.36361 5.82295ZM1.85234 5.8665C1.68827 5.89021 1.52093 5.8753 1.36362 5.82295L1.20573 6.29736C1.43688 6.37429 1.68277 6.3962 1.92386 6.36136L1.85234 5.8665ZM5.61725 5.86393H1.8881V6.36393H5.61725V5.86393ZM6.13896 5.8214C5.98231 5.87395 5.81562 5.88934 5.65203 5.86636L5.58247 6.3615C5.82287 6.39527 6.06781 6.37265 6.29798 6.29544L6.13896 5.8214ZM6.55484 5.56346C6.43799 5.68056 6.29563 5.76885 6.13896 5.8214L6.29798 6.29544C6.52815 6.21823 6.73723 6.08854 6.90878 5.91663L6.55484 5.56346ZM6.81225 5.14653C6.75981 5.30364 6.67168 5.44636 6.55484 5.56346L6.90878 5.91663C7.08032 5.74471 7.20961 5.53527 7.28653 5.30484L6.81225 5.14653ZM6.85691 4.65824C6.87997 4.82228 6.86468 4.98944 6.81225 5.14654L7.28653 5.30483C7.36344 5.07439 7.38587 4.82922 7.35205 4.58864L6.85691 4.65824ZM6.85448 3.13057V4.62344H7.35448V3.13057H6.85448ZM3.37849 3.38057H7.10448V2.88057H3.37849V3.38057ZM3.62849 3.50379V3.13057H3.12849V3.50379H3.62849ZM6.73505 3.25379H3.37849V3.75379H6.73505V3.25379ZM6.98505 4.62344V3.50379H6.48505V4.62344H6.98505ZM6.93146 5.15528C6.99221 4.97276 7.00969 4.7786 6.98254 4.58816L6.48755 4.65871C6.50376 4.77246 6.49331 4.88841 6.45704 4.99738L6.93146 5.15528ZM6.63248 5.63978C6.76836 5.50368 6.87071 5.33779 6.93146 5.15528L6.45704 4.99738C6.42077 5.10636 6.35968 5.20534 6.27865 5.28651L6.63248 5.63978ZM6.14858 5.93935C6.33094 5.87845 6.49662 5.77587 6.63249 5.63977L6.27864 5.28652C6.19761 5.36768 6.09885 5.42881 5.9902 5.4651L6.14858 5.93935ZM5.58186 5.99057C5.77218 6.01778 5.9662 6.00025 6.14858 5.93935L5.99021 5.4651C5.88157 5.50137 5.766 5.51181 5.65264 5.4956L5.58186 5.99057ZM1.8881 5.99309H5.61725V5.49309H1.8881V5.99309ZM1.35677 5.93935C1.53914 6.00025 1.73317 6.01778 1.92349 5.99057L1.85271 5.4956C1.73935 5.51181 1.62378 5.50137 1.51513 5.46509L1.35677 5.93935ZM0.872852 5.63977C1.00873 5.77587 1.1744 5.87845 1.35676 5.93935L1.51514 5.4651C1.4065 5.42882 1.30774 5.36769 1.2267 5.28651L0.872852 5.63977ZM0.573893 5.15528C0.634638 5.33779 0.736983 5.50368 0.872853 5.63977L1.2267 5.28651C1.14567 5.20535 1.08458 5.10636 1.0483 4.99738L0.573893 5.15528ZM0.522805 4.58815C0.495653 4.7786 0.513146 4.97277 0.573893 5.15528L1.0483 4.99738C1.01203 4.8884 1.00159 4.77245 1.0178 4.65872L0.522805 4.58815ZM0.520303 2.00854V4.62344H1.0203V2.00854H0.520303ZM0.573891 1.47669C0.513147 1.65921 0.495653 1.85337 0.522805 2.04383L1.0178 1.97326C1.00159 1.85952 1.01203 1.74358 1.04831 1.63459L0.573891 1.47669ZM0.872846 0.992202C0.736986 1.1283 0.63464 1.29417 0.573893 1.47669L1.0483 1.63459C1.08458 1.52562 1.14567 1.42663 1.22671 1.34545L0.872846 0.992202ZM1.35676 0.692626C1.1744 0.753523 1.00873 0.856091 0.872852 0.992196L1.2267 1.34546C1.30773 1.26429 1.40649 1.20316 1.51514 1.16688L1.35676 0.692626ZM1.9235 0.641408C1.73317 0.614183 1.53914 0.631727 1.35677 0.692624L1.51513 1.16688C1.62378 1.1306 1.73935 1.12016 1.8527 1.13637L1.9235 0.641408ZM5.61725 0.638889H1.8881V1.13889H5.61725V0.638889ZM6.14823 0.69366C5.96625 0.632533 5.77256 0.614613 5.58247 0.641321L5.65203 1.13646C5.76525 1.12055 5.88061 1.13122 5.98903 1.16764L6.14823 0.69366ZM6.631 0.993469C6.49548 0.857436 6.33021 0.754788 6.14824 0.693661L5.98903 1.16764C6.09744 1.20405 6.19595 1.26522 6.27678 1.34635L6.631 0.993469ZM6.92917 1.47746C6.86859 1.2952 6.76652 1.1295 6.631 0.993469L6.27678 1.34635C6.3576 1.42748 6.41853 1.52636 6.45471 1.63519L6.92917 1.47746ZM6.98018 2.04372C7.00721 1.85357 6.98977 1.65972 6.92917 1.47746L6.45471 1.63519C6.49088 1.744 6.50131 1.85977 6.48516 1.97336L6.98018 2.04372ZM7.10765 1.75854H6.73267V2.25854H7.10765V1.75854ZM6.81614 1.48354C6.86857 1.64111 6.88364 1.80876 6.86016 1.9732L7.35513 2.04388C7.38957 1.80272 7.36748 1.55684 7.29058 1.3257L6.81614 1.48354ZM6.55821 1.06543C6.6754 1.18282 6.76372 1.32596 6.81614 1.48353L7.29058 1.32571C7.21369 1.09456 7.0841 0.8845 6.91206 0.712172L6.55821 1.06543ZM6.14102 0.807178C6.29817 0.859632 6.44102 0.94804 6.5582 1.06543L6.91206 0.712177C6.74001 0.539834 6.53023 0.409969 6.29932 0.332899L6.14102 0.807178ZM14.6623 0.763141C14.8263 0.739644 14.9935 0.754718 15.1506 0.807175L15.3089 0.332891C15.078 0.255823 14.8324 0.233671 14.5914 0.268193L14.6623 0.763141ZM9.40743 0.768837L14.627 0.765667L14.6267 0.265667L9.40713 0.268837L9.40743 0.768837ZM9.65728 6.11709V0.518837H9.15728V6.11709H9.65728ZM9.77988 5.86709H9.40728V6.36709H9.77988V5.86709ZM9.52988 3.5022V6.11709H10.0299V3.5022H9.52988ZM14.6252 3.2522H9.77988V3.7522H14.6252V3.2522ZM15.1566 3.30594C14.9743 3.24503 14.7802 3.22749 14.5899 3.25471L14.6606 3.74968C14.774 3.73346 14.8896 3.74391 14.9982 3.78018L15.1566 3.30594ZM15.6406 3.6055C15.5047 3.46938 15.3389 3.36682 15.1566 3.30594L14.9982 3.78018C15.1069 3.81648 15.2057 3.87761 15.2867 3.95876L15.6406 3.6055ZM15.9395 4.09002C15.8788 3.90749 15.7764 3.7416 15.6406 3.6055L15.2867 3.95876C15.3678 4.03994 15.4288 4.13892 15.4651 4.24787L15.9395 4.09002ZM15.9905 4.65724C16.0178 4.46668 16.0002 4.27249 15.9395 4.09002L15.4651 4.24787C15.5014 4.35691 15.5118 4.47283 15.4956 4.58645L15.9905 4.65724ZM15.993 6.11472V4.62185H15.493V6.11472H15.993ZM16.1172 5.86472H15.743V6.36472H16.1172V5.86472ZM15.8672 4.62185V6.11472H16.3672V4.62185H15.8672ZM15.7704 3.98514C15.8603 4.17373 15.8945 4.38406 15.8691 4.59139L16.3654 4.65231C16.4024 4.35049 16.3525 4.04443 16.2218 3.77009L15.7704 3.98514ZM15.3621 3.52716C15.5389 3.63773 15.6806 3.7966 15.7704 3.98514L16.2218 3.77009C16.0911 3.49569 15.8848 3.26431 15.6272 3.10322L15.3621 3.52716ZM15.7704 2.64524C15.6806 2.83378 15.5389 2.99264 15.3621 3.10322L15.6272 3.52716C15.8848 3.36606 16.0911 3.13469 16.2218 2.86029L15.7704 2.64524ZM15.8691 2.03899C15.8945 2.24631 15.8603 2.45665 15.7704 2.64524L16.2218 2.86029C16.3525 2.58595 16.4024 2.27989 16.3654 1.97808L15.8691 2.03899ZM15.8258 1.48359C15.8782 1.64113 15.8933 1.80873 15.8697 1.97311L16.3647 2.04396C16.3992 1.80274 16.3771 1.55681 16.3002 1.32564L15.8258 1.48359ZM15.5679 1.06542C15.685 1.1828 15.7733 1.32593 15.8257 1.4835L16.3002 1.32573C16.2233 1.09458 16.0938 0.884508 15.9217 0.712172L15.5679 1.06542ZM15.1506 0.807175C15.3078 0.859619 15.4506 0.948019 15.5679 1.06547L15.9217 0.712128C15.7496 0.539844 15.5399 0.409972 15.3089 0.332891L15.1506 0.807175ZM15.4651 1.63456C15.5014 1.7436 15.5118 1.85952 15.4956 1.97314L15.9905 2.04394C16.0178 1.85337 16.0002 1.65918 15.9395 1.47671L15.4651 1.63456ZM15.2867 1.34545C15.3678 1.42663 15.4288 1.52561 15.4651 1.63456L15.9395 1.47671C15.8788 1.29418 15.7764 1.12829 15.6406 0.992192L15.2867 1.34545ZM14.9982 1.16687C15.1069 1.20317 15.2057 1.2643 15.2867 1.34545L15.6406 0.992192C15.5047 0.856066 15.3389 0.753513 15.1566 0.692626L14.9982 1.16687ZM14.6606 1.13637C14.774 1.12015 14.8896 1.1306 14.9982 1.16687L15.1566 0.692626C14.9743 0.631719 14.7802 0.614182 14.5899 0.641403L14.6606 1.13637ZM9.77988 1.13889H14.6252V0.638886H9.77988V1.13889ZM10.0299 3.12819V0.888886H9.52988V3.12819H10.0299ZM14.6237 2.87819H9.77988V3.37819H14.6237V2.87819ZM14.9974 2.85071C14.8887 2.88688 14.7729 2.89718 14.6595 2.88076L14.5879 3.37561C14.7783 3.40317 14.9727 3.3859 15.1553 3.32514L14.9974 2.85071ZM15.2864 2.67217C15.2051 2.75341 15.1062 2.81452 14.9974 2.85071L15.1552 3.32515C15.3379 3.26439 15.5038 3.16187 15.6399 3.02577L15.2864 2.67217ZM15.465 2.38291C15.4287 2.49196 15.3675 2.59102 15.2863 2.67224L15.64 3.0257C15.776 2.88958 15.8786 2.72358 15.9394 2.54085L15.465 2.38291ZM15.4956 2.0439C15.5118 2.1578 15.5014 2.27383 15.4651 2.38279L15.9394 2.54097C16.0003 2.35817 16.0178 2.16376 15.9905 1.97317L15.4956 2.0439ZM19.0667 4.99502C19.0305 4.886 19.02 4.77004 19.0362 4.65633L18.5412 4.58578C18.5141 4.77627 18.5316 4.97042 18.5923 5.15288L19.0667 4.99502ZM19.2451 5.28413C19.1641 5.20297 19.103 5.10398 19.0667 4.99503L18.5923 5.15288C18.653 5.33541 18.7554 5.50131 18.8913 5.6374L19.2451 5.28413ZM19.5336 5.46272C19.4249 5.42643 19.3261 5.36529 19.2451 5.28414L18.8913 5.6374C19.0272 5.77352 19.1929 5.87608 19.3752 5.93697L19.5336 5.46272ZM19.8711 5.49323C19.7578 5.50944 19.6422 5.499 19.5336 5.46272L19.3752 5.93697C19.5576 5.99788 19.7516 6.01541 19.9419 5.98819L19.8711 5.49323ZM23.6325 5.49071H19.9065V5.99071H23.6325V5.49071ZM24.0055 5.46272C23.8969 5.49899 23.7813 5.50944 23.6679 5.49323L23.5971 5.98819C23.7875 6.0154 23.9815 5.99788 24.1639 5.93697L24.0055 5.46272ZM24.294 5.28414C24.2129 5.36529 24.1141 5.42643 24.0055 5.46272L24.1639 5.93697C24.3462 5.87608 24.5119 5.77352 24.6478 5.6374L24.294 5.28414ZM24.4723 4.99502C24.4361 5.10398 24.375 5.20297 24.294 5.28413L24.6478 5.6374C24.7837 5.5013 24.886 5.33541 24.9468 5.15288L24.4723 4.99502ZM24.5028 4.65646C24.5191 4.77008 24.5086 4.886 24.4723 4.99502L24.9468 5.15288C25.0075 4.97042 25.025 4.77622 24.9978 4.58566L24.5028 4.65646ZM24.5003 2.00616V4.62106H25.0003V2.00616H24.5003ZM24.4723 1.63219C24.5086 1.74123 24.5191 1.85715 24.5028 1.97076L24.9978 2.04156C25.025 1.851 25.0075 1.65681 24.9468 1.47434L24.4723 1.63219ZM24.294 1.34308C24.375 1.42426 24.4361 1.52324 24.4723 1.63219L24.9468 1.47434C24.886 1.2918 24.7837 1.12592 24.6478 0.989821L24.294 1.34308ZM24.0055 1.1645C24.1141 1.20079 24.2129 1.26193 24.294 1.34308L24.6478 0.989819C24.5119 0.853693 24.3462 0.75114 24.1639 0.690253L24.0055 1.1645ZM23.6679 1.134C23.7813 1.11778 23.8969 1.12823 24.0055 1.1645L24.1639 0.690253C23.9815 0.629346 23.7875 0.61181 23.5971 0.639031L23.6679 1.134ZM19.9065 1.13651H23.6325V0.636513H19.9065V1.13651ZM19.5336 1.1645C19.6422 1.12823 19.7578 1.11778 19.8711 1.13399L19.9419 0.639033C19.7516 0.611806 19.5575 0.62935 19.3752 0.690253L19.5336 1.1645ZM19.2451 1.34308C19.3261 1.26193 19.4249 1.20079 19.5336 1.1645L19.3752 0.690253C19.1929 0.75114 19.0272 0.853693 18.8913 0.989819L19.2451 1.34308ZM19.0667 1.63219C19.103 1.52324 19.1641 1.42426 19.2451 1.34308L18.8913 0.989821C18.7554 1.12592 18.653 1.2918 18.5923 1.47434L19.0667 1.63219ZM19.0362 1.97089C19.02 1.85719 19.0305 1.74123 19.0667 1.63219L18.5923 1.47434C18.5316 1.65681 18.5141 1.85096 18.5412 2.04144L19.0362 1.97089ZM19.0387 4.62106V2.00616H18.5387V4.62106H19.0387ZM34.0099 4.62106V0.515671H33.5099V4.62106H34.0099ZM33.9564 5.15288C34.0171 4.97041 34.0346 4.77622 34.0074 4.58566L33.5124 4.65646C33.5287 4.77008 33.5182 4.886 33.4819 4.99502L33.9564 5.15288ZM33.6574 5.6374C33.7933 5.5013 33.8956 5.33541 33.9564 5.15288L33.4819 4.99502C33.4457 5.10398 33.3846 5.20297 33.3036 5.28413L33.6574 5.6374ZM33.1735 5.93697C33.3558 5.87608 33.5215 5.77351 33.6574 5.6374L33.3036 5.28413C33.2225 5.36529 33.1237 5.42643 33.0151 5.46272L33.1735 5.93697ZM32.6068 5.98819C32.7971 6.01541 32.9911 5.99788 33.1735 5.93697L33.0151 5.46272C32.9065 5.49899 32.7909 5.50944 32.6776 5.49323L32.6068 5.98819ZM28.9161 5.99071H32.6422V5.49071H28.9161V5.99071ZM28.3848 5.93697C28.5672 5.99788 28.7612 6.01541 28.9515 5.98819L28.8807 5.49323C28.7674 5.50944 28.6518 5.49899 28.5432 5.46272L28.3848 5.93697ZM27.9009 5.63739C28.0368 5.77351 28.2025 5.87608 28.3848 5.93697L28.5432 5.46272C28.4346 5.42643 28.3357 5.36529 28.2547 5.28413L27.9009 5.63739ZM27.6019 5.15288C27.6627 5.33541 27.765 5.5013 27.9009 5.6374L28.2547 5.28413C28.1737 5.20296 28.1126 5.10398 28.0764 4.99502L27.6019 5.15288ZM27.5509 4.58566C27.5237 4.77622 27.5412 4.97041 27.6019 5.15288L28.0764 4.99502C28.0401 4.886 28.0296 4.77008 28.0459 4.65646L27.5509 4.58566ZM27.5484 0.515671V4.62106H28.0484V0.515671H27.5484ZM27.4257 0.765671H27.7984V0.265671H27.4257V0.765671ZM27.6757 4.62106V0.515671H27.1757V4.62106H27.6757ZM27.7173 5.14601C27.6648 4.98846 27.6497 4.82083 27.6732 4.65639L27.1782 4.58572C27.1438 4.82688 27.1659 5.07278 27.2429 5.30395L27.7173 5.14601ZM27.9752 5.56417C27.858 5.44679 27.7697 5.30366 27.7173 5.14609L27.2428 5.30387C27.3197 5.535 27.4493 5.74508 27.6213 5.91742L27.9752 5.56417ZM28.3924 5.82241C28.2352 5.76996 28.0924 5.68156 27.9751 5.56412L27.6214 5.91747C27.7934 6.08974 28.0031 6.21961 28.2341 6.29669L28.3924 5.82241ZM28.8806 5.86645C28.7167 5.88995 28.5496 5.87488 28.3924 5.82241L28.2341 6.29669C28.465 6.37377 28.7106 6.39592 28.9516 6.3614L28.8806 5.86645ZM32.6422 5.86393H28.9161V6.36393H32.6422V5.86393ZM33.1659 5.82241C33.0087 5.87488 32.8416 5.88995 32.6776 5.86645L32.6067 6.3614C32.8477 6.39592 33.0933 6.37377 33.3242 6.29669L33.1659 5.82241ZM33.5832 5.56412C33.4659 5.68156 33.3231 5.76996 33.1659 5.82241L33.3242 6.29669C33.5552 6.21961 33.7649 6.08974 33.9369 5.91747L33.5832 5.56412ZM33.841 5.14609C33.7886 5.30366 33.7003 5.44679 33.5831 5.56417L33.937 5.91742C34.109 5.74508 34.2386 5.535 34.3155 5.30387L33.841 5.14609ZM33.8851 4.65639C33.9086 4.82082 33.8935 4.98846 33.841 5.14601L34.3154 5.30395C34.3924 5.07279 34.4145 4.82689 34.3801 4.58572L33.8851 4.65639ZM33.8826 0.515671V4.62106H34.3826V0.515671H33.8826ZM33.7599 0.765671H34.1326V0.265671H33.7599V0.765671ZM42.333 0.332891C42.1021 0.255826 41.8565 0.233668 41.6155 0.268195L41.6865 0.763139C41.8504 0.739647 42.0176 0.754716 42.1747 0.807175L42.333 0.332891ZM42.9458 0.712129C42.7737 0.539843 42.564 0.409971 42.333 0.332891L42.1747 0.807175C42.3319 0.85962 42.4747 0.94802 42.592 1.06547L42.9458 0.712129ZM43.3243 1.32572C43.2474 1.09458 43.1178 0.884509 42.9458 0.712173L42.5919 1.06542C42.7091 1.1828 42.7974 1.32593 42.8498 1.4835L43.3243 1.32572ZM43.3889 2.04387C43.4233 1.80271 43.4012 1.55681 43.3242 1.32564L42.8499 1.48358C42.9023 1.64114 42.9174 1.80877 42.8939 1.9732L43.3889 2.04387ZM43.3242 2.69142C43.4012 2.46026 43.4233 2.21436 43.3889 1.9732L42.8939 2.04387C42.9174 2.2083 42.9023 2.37593 42.8499 2.53347L43.3242 2.69142ZM42.9458 3.3049C43.1178 3.13256 43.2474 2.92248 43.3243 2.69134L42.8498 2.53356C42.7974 2.69113 42.7091 2.83427 42.5919 2.95165L42.9458 3.3049ZM42.333 3.68417C42.564 3.60709 42.7737 3.47722 42.9458 3.30495L42.592 2.9516C42.4747 3.06904 42.3319 3.15744 42.1747 3.20989L42.333 3.68417ZM41.6155 3.74887C41.8565 3.7834 42.1021 3.76124 42.333 3.68417L42.1747 3.20989C42.0176 3.26235 41.8504 3.27742 41.6865 3.25393L41.6155 3.74887ZM36.8072 3.7514H41.651V3.2514H36.8072V3.7514ZM37.0572 6.1163V3.5014H36.5572V6.1163H37.0572ZM36.4345 6.3663H36.8072V5.8663H36.4345V6.3663ZM36.1845 0.518044V6.1163H36.6845V0.518044H36.1845ZM41.6509 0.265667L36.4344 0.268044L36.4347 0.768044L41.6511 0.765667L41.6509 0.265667ZM43.0162 2.04394C43.0435 1.85337 43.0259 1.65918 42.9652 1.47671L42.4908 1.63456C42.527 1.7436 42.5375 1.85952 42.5212 1.97314L43.0162 2.04394ZM42.7695 1.75854H42.7687V2.25854H42.7695V1.75854ZM42.966 2.54056C43.0267 2.35803 43.0442 2.16376 43.017 1.97315L42.522 2.04392C42.5383 2.15763 42.5278 2.27366 42.4915 2.38276L42.966 2.54056ZM42.6667 3.02529C42.8027 2.88918 42.9051 2.72325 42.966 2.54067L42.4916 2.38265C42.4553 2.4917 42.3941 2.59073 42.313 2.67193L42.6667 3.02529ZM42.1824 3.3248C42.3649 3.26398 42.5307 3.16144 42.6667 3.02529L42.313 2.67192C42.2319 2.75308 42.1331 2.8142 42.0243 2.85045L42.1824 3.3248ZM41.6154 3.37564C41.8058 3.40302 41.9999 3.38563 42.1824 3.32479L42.0243 2.85046C41.9156 2.88668 41.8 2.89705 41.6866 2.88073L41.6154 3.37564ZM36.8072 3.37819H41.651V2.87819H36.8072V3.37819ZM36.5572 0.888886V3.12819H37.0572V0.888886H36.5572ZM41.651 0.638886H36.8072V1.13889H41.651V0.638886ZM42.1823 0.692626C42 0.631722 41.8059 0.614179 41.6156 0.641406L41.6864 1.13637C41.7997 1.12015 41.9153 1.1306 42.0239 1.16687L42.1823 0.692626ZM42.6662 0.992193C42.5303 0.856066 42.3646 0.753513 42.1823 0.692625L42.0239 1.16687C42.1326 1.20317 42.2314 1.2643 42.3124 1.34545L42.6662 0.992193ZM42.9652 1.47671C42.9045 1.29418 42.8021 1.12829 42.6662 0.99219L42.3124 1.34545C42.3934 1.42663 42.4545 1.52561 42.4908 1.63456L42.9652 1.47671ZM46.0769 6.29669C46.3078 6.37376 46.5535 6.39592 46.7944 6.36139L46.7235 5.86645C46.5595 5.88994 46.3924 5.87487 46.2352 5.82241L46.0769 6.29669ZM45.4642 5.91747C45.6362 6.08974 45.8459 6.21961 46.0769 6.29669L46.2352 5.82241C46.078 5.76996 45.9352 5.68156 45.8179 5.56412L45.4642 5.91747ZM45.0857 5.30387C45.1625 5.535 45.2921 5.74508 45.4641 5.91742L45.818 5.56417C45.7008 5.44679 45.6125 5.30365 45.5601 5.14609L45.0857 5.30387ZM45.021 4.58572C44.9866 4.82688 45.0087 5.07278 45.0857 5.30395L45.5601 5.14601C45.5076 4.98845 45.4925 4.82082 45.516 4.65639L45.021 4.58572ZM45.6412 4.37105H45.2685V4.87105H45.6412V4.37105ZM45.9192 4.99501C45.8829 4.88599 45.8724 4.77008 45.8887 4.65645L45.3937 4.58566C45.3665 4.77621 45.384 4.97041 45.4447 5.15288L45.9192 4.99501ZM46.0975 5.28413C46.0165 5.20296 45.9554 5.10398 45.9192 4.99502L45.4447 5.15287C45.5055 5.3354 45.6078 5.5013 45.7437 5.6374L46.0975 5.28413ZM46.386 5.46272C46.2774 5.42643 46.1786 5.36529 46.0975 5.28413L45.7437 5.63739C45.8796 5.77351 46.0453 5.87608 46.2276 5.93697L46.386 5.46272ZM46.7235 5.49322C46.6102 5.50943 46.4946 5.49899 46.386 5.46272L46.2276 5.93696C46.41 5.99787 46.604 6.0154 46.7943 5.98819L46.7235 5.49322ZM50.485 5.49071H46.7589V5.99071H50.485V5.49071ZM50.8579 5.46272C50.7493 5.49899 50.6337 5.50943 50.5204 5.49322L50.4496 5.98819C50.6399 6.0154 50.8339 5.99787 51.0163 5.93697L50.8579 5.46272ZM51.1464 5.28413C51.0654 5.36528 50.9666 5.42643 50.8579 5.46272L51.0163 5.93697C51.1986 5.87608 51.3643 5.77351 51.5002 5.63739L51.1464 5.28413ZM51.3248 4.99502C51.2885 5.10398 51.2274 5.20296 51.1464 5.28413L51.5002 5.6374C51.6361 5.5013 51.7385 5.33541 51.7992 5.15287L51.3248 4.99502ZM51.3553 4.65633C51.3715 4.77003 51.361 4.88599 51.3248 4.99502L51.7992 5.15287C51.8599 4.97041 51.8774 4.77626 51.8503 4.58578L51.3553 4.65633ZM51.3248 4.24708C51.361 4.35612 51.3715 4.47208 51.3553 4.58578L51.8503 4.65633C51.8774 4.46585 51.8599 4.2717 51.7992 4.08923L51.3248 4.24708ZM51.1464 3.95797C51.2274 4.03915 51.2885 4.13813 51.3248 4.24708L51.7992 4.08923C51.7385 3.90669 51.6361 3.74081 51.5002 3.60471L51.1464 3.95797ZM50.8579 3.77939C50.9666 3.81568 51.0654 3.87683 51.1464 3.95798L51.5002 3.6047C51.3643 3.46859 51.1986 3.36603 51.0163 3.30514L50.8579 3.77939ZM50.5204 3.74888C50.6337 3.73267 50.7493 3.74312 50.8579 3.77939L51.0163 3.30514C50.8339 3.24424 50.6399 3.2267 50.4496 3.25392L50.5204 3.74888ZM46.7589 3.7514H50.485V3.2514H46.7589V3.7514ZM46.0769 3.68417C46.3078 3.76125 46.5535 3.7834 46.7944 3.74888L46.7235 3.25393C46.5595 3.27742 46.3924 3.26235 46.2352 3.20989L46.0769 3.68417ZM45.4642 3.30495C45.6362 3.47722 45.8459 3.60709 46.0769 3.68417L46.2352 3.20989C46.078 3.15744 45.9352 3.06904 45.8179 2.9516L45.4642 3.30495ZM45.0856 2.69134C45.1625 2.92248 45.2921 3.13256 45.4641 3.3049L45.818 2.95165C45.7008 2.83427 45.6125 2.69113 45.5601 2.53356L45.0856 2.69134ZM45.021 1.9732C44.9866 2.21436 45.0087 2.46026 45.0857 2.69142L45.5601 2.53347C45.5076 2.37593 45.4925 2.2083 45.516 2.04387L45.021 1.9732ZM45.0857 1.32564C45.0087 1.55681 44.9866 1.80271 45.021 2.04387L45.516 1.9732C45.4925 1.80877 45.5076 1.64114 45.5601 1.48359L45.0857 1.32564ZM45.4641 0.712173C45.2921 0.884509 45.1625 1.09458 45.0856 1.32573L45.5601 1.4835C45.6125 1.32593 45.7008 1.1828 45.818 1.06542L45.4641 0.712173ZM46.0769 0.332891C45.8459 0.409971 45.6362 0.539843 45.4642 0.712129L45.8179 1.06547C45.9352 0.94802 46.078 0.85962 46.2352 0.807176L46.0769 0.332891ZM46.7944 0.268195C46.5535 0.233669 46.3078 0.255826 46.0769 0.332891L46.2352 0.807175C46.3924 0.754716 46.5595 0.739647 46.7235 0.763139L46.7944 0.268195ZM50.485 0.265667H46.7589V0.765667H50.485V0.265667ZM51.1669 0.333226C50.9361 0.256088 50.6905 0.233806 50.4497 0.268174L50.5203 0.76316C50.6842 0.739779 50.8513 0.754929 51.0084 0.807443L51.1669 0.333226ZM51.7793 0.712566C51.6073 0.540245 51.3976 0.410373 51.1669 0.333234L51.0084 0.807434C51.1654 0.859947 51.3082 0.948379 51.4254 1.06574L51.7793 0.712566ZM52.1576 1.32593C52.0807 1.09486 51.9511 0.884881 51.7793 0.712616L51.4253 1.06569C51.5424 1.18311 51.6307 1.32625 51.6831 1.48376L52.1576 1.32593ZM52.222 2.04388C52.2564 1.80278 52.2343 1.55701 52.1576 1.32601L51.6831 1.48367C51.7354 1.64123 51.7505 1.80884 51.727 1.97319L52.222 2.04388ZM51.6019 2.25854H51.9745V1.75854H51.6019V2.25854ZM51.324 1.63456C51.3602 1.74359 51.3707 1.85951 51.3544 1.97314L51.8494 2.04393C51.8767 1.85337 51.8591 1.65918 51.7984 1.47671L51.324 1.63456ZM51.1456 1.34545C51.2266 1.42663 51.2877 1.52561 51.324 1.63456L51.7984 1.47671C51.7377 1.29417 51.6353 1.12829 51.4994 0.992192L51.1456 1.34545ZM50.8571 1.16687C50.9658 1.20316 51.0646 1.2643 51.1456 1.34545L51.4994 0.992189C51.3635 0.856065 51.1978 0.753511 51.0155 0.692624L50.8571 1.16687ZM50.5196 1.13636C50.6329 1.12015 50.7485 1.1306 50.8571 1.16687L51.0155 0.692625C50.8332 0.63172 50.6391 0.614177 50.4488 0.641404L50.5196 1.13636ZM46.7581 1.13888H50.4842V0.638884H46.7581V1.13888ZM46.3852 1.16687C46.4938 1.1306 46.6094 1.12015 46.7227 1.13636L46.7935 0.641404C46.6032 0.614177 46.4092 0.631721 46.2268 0.692624L46.3852 1.16687ZM46.0968 1.34545C46.1778 1.2643 46.2766 1.20316 46.3852 1.16687L46.2268 0.692625C46.0445 0.753511 45.8788 0.856064 45.7429 0.992192L46.0968 1.34545ZM45.9184 1.63456C45.9546 1.52561 46.0157 1.42663 46.0967 1.34545L45.7429 0.992189C45.607 1.12829 45.5047 1.29417 45.4439 1.47671L45.9184 1.63456ZM45.8879 1.97314C45.8716 1.85952 45.8821 1.7436 45.9184 1.63456L45.4439 1.47671C45.3832 1.65918 45.3657 1.85337 45.3929 2.04393L45.8879 1.97314ZM45.9184 2.3825C45.8821 2.27347 45.8716 2.15755 45.8879 2.04393L45.3929 1.97314C45.3657 2.1637 45.3832 2.35789 45.4439 2.54035L45.9184 2.3825ZM46.0967 2.6716C46.0157 2.59044 45.9546 2.49146 45.9184 2.3825L45.4439 2.54035C45.5047 2.72288 45.607 2.88878 45.7429 3.02488L46.0967 2.6716ZM46.3852 2.8502C46.2766 2.81391 46.1778 2.75276 46.0968 2.67161L45.7429 3.02487C45.8788 3.16099 46.0445 3.26356 46.2268 3.32445L46.3852 2.8502ZM46.7227 2.8807C46.6094 2.89691 46.4938 2.88647 46.3852 2.8502L46.2268 3.32445C46.4092 3.38535 46.6032 3.40288 46.7935 3.37567L46.7227 2.8807ZM50.4842 2.87819H46.7581V3.37819H50.4842V2.87819ZM51.1662 2.94541C50.9353 2.86834 50.6897 2.84619 50.4487 2.88071L50.5197 3.37566C50.6836 3.35217 50.8508 3.36724 51.0079 3.41969L51.1662 2.94541ZM51.779 3.32465C51.6069 3.15236 51.3972 3.0225 51.1662 2.94541L51.0079 3.41969C51.1651 3.47215 51.3079 3.56054 51.4252 3.67799L51.779 3.32465ZM52.1575 3.93824C52.0806 3.7071 51.951 3.49703 51.779 3.32469L51.4252 3.67794C51.5423 3.79532 51.6306 3.93845 51.683 4.09602L52.1575 3.93824ZM52.222 4.65649C52.2565 4.41526 52.2344 4.16933 52.1575 3.93816L51.6831 4.0961C51.7355 4.25366 51.7506 4.42126 51.727 4.58562L52.222 4.65649ZM52.1575 5.30395C52.2344 5.07278 52.2565 4.82685 52.222 4.58562L51.727 4.65649C51.7506 4.82085 51.7355 4.98845 51.6831 5.14601L52.1575 5.30395ZM51.779 5.91742C51.951 5.74508 52.0806 5.535 52.1575 5.30387L51.683 5.14609C51.6306 5.30365 51.5423 5.44679 51.4252 5.56417L51.779 5.91742ZM51.1662 6.29669C51.3972 6.21961 51.6069 6.08974 51.779 5.91747L51.4252 5.56412C51.3079 5.68156 51.1651 5.76996 51.0079 5.82241L51.1662 6.29669ZM50.4487 6.36139C50.6897 6.39592 50.9353 6.37376 51.1662 6.29669L51.0079 5.82241C50.8508 5.87487 50.6836 5.88994 50.5197 5.86645L50.4487 6.36139ZM46.7589 6.36392H50.4842V5.86392H46.7589V6.36392ZM54.4 3.49903V6.11393H54.9V3.49903H54.4ZM60.6132 3.24903H54.65V3.74903H60.6132V3.24903ZM60.8632 6.11393V3.49903H60.3632V6.11393H60.8632ZM60.9858 5.86393H60.6132V6.36393H60.9858V5.86393ZM60.7358 0.515671V6.11393H61.2358V0.515671H60.7358ZM60.6132 0.765671H60.9858V0.265671H60.6132V0.765671ZM60.8632 3.13057V0.515671H60.3632V3.13057H60.8632ZM54.65 3.38057H60.6132V2.88057H54.65V3.38057ZM54.4 0.515671V3.13057H54.9V0.515671H54.4ZM54.2774 0.765671H54.65V0.265671H54.2774V0.765671ZM54.5274 6.11393V0.515671H54.0274V6.11393H54.5274ZM54.65 5.86393H54.2774V6.36393H54.65V5.86393ZM64.094 6.29604C64.3247 6.37324 64.5702 6.39564 64.811 6.36144L64.7407 5.86641C64.5768 5.88968 64.4098 5.87444 64.2527 5.82188L64.094 6.29604ZM63.482 5.91657C63.6538 6.08889 63.8634 6.21881 64.094 6.29603L64.2527 5.82189C64.0958 5.76933 63.9531 5.6809 63.8361 5.56357L63.482 5.91657ZM63.104 5.30338C63.1808 5.53441 63.3103 5.74435 63.4821 5.91662L63.8361 5.56352C63.719 5.44614 63.6308 5.30308 63.5785 5.14568L63.104 5.30338ZM63.0396 4.5857C63.0051 4.82674 63.0272 5.07243 63.104 5.30338L63.5785 5.14568C63.5261 4.98818 63.5111 4.82068 63.5345 4.65642L63.0396 4.5857ZM63.037 2.00616V4.62106H63.537V2.00616H63.037ZM63.1041 1.32327C63.0271 1.55443 63.005 1.80037 63.0396 2.04159L63.5345 1.97073C63.511 1.80636 63.5261 1.63876 63.5785 1.48121L63.1041 1.32327ZM63.4826 0.709801C63.3105 0.882137 63.181 1.09221 63.1041 1.32335L63.5785 1.48113C63.6309 1.32356 63.7192 1.18043 63.8364 1.06305L63.4826 0.709801ZM64.0953 0.330519C63.8644 0.4076 63.6547 0.537472 63.4826 0.709755L63.8364 1.0631C63.9537 0.945647 64.0965 0.857247 64.2536 0.804804L64.0953 0.330519ZM64.8129 0.265821C64.5719 0.231299 64.3263 0.253451 64.0953 0.33052L64.2536 0.804803C64.4108 0.752347 64.578 0.737272 64.742 0.760769L64.8129 0.265821ZM68.5081 0.263295H64.7774V0.763295H68.5081V0.263295ZM69.1902 0.330519C68.9593 0.253452 68.7137 0.231299 68.4727 0.265821L68.5435 0.760769C68.7076 0.737273 68.8747 0.752347 69.0319 0.804804L69.1902 0.330519ZM69.8029 0.709759C69.6309 0.537472 69.4212 0.407599 69.1902 0.330519L69.0319 0.804804C69.1891 0.857248 69.3319 0.945648 69.4492 1.06309L69.8029 0.709759ZM70.1815 1.32336C70.1046 1.09221 69.975 0.882134 69.803 0.709796L69.4491 1.06305C69.5663 1.18043 69.6546 1.32356 69.707 1.48113L70.1815 1.32336ZM70.2461 2.0415C70.2805 1.80034 70.2584 1.55444 70.1814 1.32326L69.707 1.48122C69.7595 1.63876 69.7746 1.80639 69.7511 1.97083L70.2461 2.0415ZM70.2486 4.62106V2.00616H69.7486V4.62106H70.2486ZM70.1814 5.30396C70.2584 5.07278 70.2805 4.82688 70.2461 4.58572L69.7511 4.65639C69.7746 4.82083 69.7595 4.98846 69.707 5.14601L70.1814 5.30396ZM69.803 5.91743C69.975 5.74509 70.1046 5.53501 70.1815 5.30387L69.707 5.14609C69.6546 5.30366 69.5663 5.44679 69.4491 5.56417L69.803 5.91743ZM69.1902 6.2967C69.4212 6.21961 69.6309 6.08974 69.8029 5.91747L69.4492 5.56413C69.3319 5.68156 69.1891 5.76997 69.0319 5.82241L69.1902 6.2967ZM68.4727 6.3614C68.7137 6.39592 68.9593 6.37377 69.1902 6.29669L69.0319 5.82241C68.8747 5.87488 68.7076 5.88995 68.5435 5.86645L68.4727 6.3614ZM64.7759 6.36393H68.5081V5.86393H64.7759V6.36393ZM63.4106 4.58566C63.3833 4.77622 63.4009 4.97041 63.4616 5.15288L63.936 4.99502C63.8997 4.886 63.8893 4.77008 63.9055 4.65646L63.4106 4.58566ZM63.4143 2.00794L63.4081 4.62046L63.9081 4.62165L63.9143 2.00913L63.4143 2.00794ZM63.4679 1.47671C63.4072 1.65918 63.3897 1.85333 63.4168 2.04381L63.9118 1.97326C63.8956 1.85956 63.9061 1.7436 63.9423 1.63456L63.4679 1.47671ZM63.7669 0.992193C63.631 1.12829 63.5287 1.29418 63.4679 1.47671L63.9423 1.63456C63.9786 1.52561 64.0397 1.42663 64.1207 1.34545L63.7669 0.992193ZM64.2508 0.692625C64.0685 0.753513 63.9028 0.856066 63.7669 0.99219L64.1207 1.34545C64.2017 1.2643 64.3005 1.20316 64.4092 1.16687L64.2508 0.692625ZM64.8175 0.641406C64.6272 0.614179 64.4332 0.631722 64.2508 0.692626L64.4092 1.16687C64.5178 1.1306 64.6334 1.12015 64.7467 1.13637L64.8175 0.641406ZM68.5081 0.638886H64.7821V1.13889H68.5081V0.638886ZM69.0387 0.692527C68.8566 0.631788 68.6629 0.614278 68.4728 0.641391L68.5434 1.13638C68.6566 1.12023 68.7721 1.13066 68.8806 1.16685L69.0387 0.692527ZM69.5221 0.991331C69.3863 0.855558 69.2208 0.753271 69.0388 0.692539L68.8805 1.16683C68.989 1.20303 69.0877 1.264 69.1686 1.34494L69.5221 0.991331ZM69.8213 1.47472C69.7604 1.29253 69.6579 1.12705 69.5221 0.991337L69.1686 1.34493C69.2496 1.42591 69.3108 1.52466 69.3471 1.63334L69.8213 1.47472ZM69.8736 2.04072C69.9001 1.85061 69.8823 1.6568 69.8213 1.47459L69.3472 1.63346C69.3836 1.74213 69.3943 1.85789 69.3784 1.9716L69.8736 2.04072ZM69.876 4.62106V2.00616H69.376V4.62106H69.876ZM69.8224 5.15287C69.8831 4.97041 69.9006 4.77626 69.8735 4.58578L69.3785 4.65633C69.3947 4.77004 69.3842 4.886 69.348 4.99502L69.8224 5.15287ZM69.5234 5.6374C69.6593 5.5013 69.7617 5.3354 69.8224 5.15287L69.348 4.99502C69.3117 5.10398 69.2506 5.20296 69.1696 5.28412L69.5234 5.6374ZM69.0395 5.93697C69.2218 5.87608 69.3875 5.77351 69.5234 5.6374L69.1696 5.28413C69.0886 5.36528 68.9897 5.42643 68.8811 5.46272L69.0395 5.93697ZM68.4727 5.98819C68.6631 6.0154 68.8571 5.99788 69.0395 5.93697L68.8811 5.46272C68.7725 5.49899 68.6569 5.50944 68.5435 5.49322L68.4727 5.98819ZM64.7759 5.99071H68.5081V5.49071H64.7759V5.99071ZM64.2445 5.93697C64.4268 5.99788 64.6209 6.0154 64.8112 5.98819L64.7405 5.49322C64.6271 5.50944 64.5115 5.49899 64.4029 5.46272L64.2445 5.93697ZM63.7606 5.6374C63.8965 5.77351 64.0622 5.87608 64.2445 5.93697L64.4029 5.46272C64.2942 5.42643 64.1954 5.36529 64.1144 5.28413L63.7606 5.6374ZM63.4616 5.15287C63.5223 5.3354 63.6247 5.5013 63.7606 5.6374L64.1144 5.28413C64.0334 5.20297 63.9723 5.10398 63.936 4.99502L63.4616 5.15287ZM78.1935 0.332892C77.9626 0.255825 77.7169 0.233669 77.476 0.268195L77.5469 0.763139C77.7109 0.739647 77.878 0.754717 78.0352 0.807175L78.1935 0.332892ZM78.8062 0.712126C78.6342 0.539843 78.4245 0.409971 78.1935 0.332891L78.0352 0.807175C78.1924 0.85962 78.3352 0.94802 78.4525 1.06547L78.8062 0.712126ZM79.1848 1.32633C79.1084 1.09456 78.9783 0.884321 78.8062 0.712075L78.4525 1.06552C78.5699 1.18299 78.6582 1.32595 78.7099 1.48289L79.1848 1.32633ZM79.2495 2.0433C79.2833 1.80284 79.2618 1.55705 79.1845 1.32546L78.7102 1.48377C78.7627 1.64089 78.7776 1.80864 78.7544 1.97377L79.2495 2.0433ZM79.1845 2.6916C79.2618 2.46002 79.2833 2.21423 79.2495 1.97377L78.7544 2.0433C78.7776 2.20844 78.7627 2.37618 78.7102 2.53329L79.1845 2.6916ZM78.8062 3.305C78.9783 3.13275 79.1084 2.9225 79.1848 2.69073L78.7099 2.53417C78.6582 2.69111 78.5699 2.83409 78.4525 2.95155L78.8062 3.305ZM78.1935 3.68417C78.4245 3.60709 78.6342 3.47722 78.8062 3.30495L78.4525 2.9516C78.3352 3.06904 78.1924 3.15744 78.0352 3.20989L78.1935 3.68417ZM77.476 3.74887C77.7169 3.7834 77.9626 3.76125 78.1935 3.68417L78.0352 3.20989C77.878 3.26235 77.7109 3.27742 77.5469 3.25393L77.476 3.74887ZM72.6693 3.7514H77.5115V3.2514H72.6693V3.7514ZM72.9193 6.1163V3.5014H72.4193V6.1163H72.9193ZM72.2967 6.3663H72.6693V5.8663H72.2967V6.3663ZM72.0467 0.518044V6.1163H72.5467V0.518044H72.0467ZM77.5114 0.265667L72.2966 0.268044L72.2968 0.768044L77.5116 0.765667L77.5114 0.265667ZM78.8769 2.0433C78.9035 1.85377 78.8869 1.65959 78.8255 1.47625L78.3514 1.63503C78.3876 1.74319 78.3979 1.85912 78.3818 1.97378L78.8769 2.0433ZM78.6341 1.75854H78.6293V2.25854H78.6341V1.75854ZM78.8302 2.54171C78.8917 2.35808 78.9083 2.1636 78.8817 1.97383L78.3865 2.04324C78.4026 2.15826 78.3923 2.27454 78.356 2.38297L78.8302 2.54171ZM78.5302 3.0266C78.6666 2.89037 78.7693 2.72423 78.8303 2.54148L78.356 2.3832C78.3195 2.4925 78.2582 2.59163 78.1769 2.6728L78.5302 3.0266ZM78.0448 3.32584C78.2276 3.26525 78.3939 3.16278 78.5302 3.02659L78.1769 2.67281C78.0956 2.75404 77.9965 2.81512 77.8875 2.85122L78.0448 3.32584ZM77.4768 3.37555C77.6674 3.40345 77.8619 3.38643 78.0448 3.32585L77.8876 2.85121C77.7786 2.88731 77.6628 2.89744 77.5493 2.88082L77.4768 3.37555ZM72.6693 3.37819H77.513V2.87819H72.6693V3.37819ZM72.4193 0.888886V3.12819H72.9193V0.888886H72.4193ZM77.5115 0.638886H72.6693V1.13889H77.5115V0.638886ZM78.0428 0.692625C77.8604 0.631722 77.6664 0.614179 77.4761 0.641406L77.5469 1.13637C77.6602 1.12015 77.7758 1.1306 77.8844 1.16687L78.0428 0.692625ZM78.5267 0.992196C78.3908 0.856065 78.2251 0.753512 78.0428 0.692626L77.8844 1.16687C77.993 1.20317 78.0918 1.2643 78.1728 1.34545L78.5267 0.992196ZM78.8257 1.47671C78.7649 1.29418 78.6626 1.12829 78.5267 0.99219L78.1729 1.34545C78.2539 1.42663 78.315 1.52561 78.3512 1.63456L78.8257 1.47671Z" fill="white"/>
</svg>