<svg xmlns="http://www.w3.org/2000/svg" width="200.276" height="15.635" viewBox="0 0 200.276 15.635">
  <path id="GROUPSHOP" d="M15.227-30.029q3.779,0,3.779,3.9h-.945q0-2.927-2.834-2.927H5.781q-2.834,0-2.834,2.927v6.83q0,2.927,2.834,2.927h9.446q2.834,0,2.834-2.927v-2.927h-8.5V-23.2h9.446v3.9q0,3.9-3.779,3.9H5.781Q2-15.394,2-19.3v-6.83q0-3.9,3.779-3.9Zm22.84,0q3.779,0,3.779,3.9,0,2.527-1.578,3.415,1.578.888,1.578,3.415v3.9H40.9v-3.9q0-2.927-2.834-2.927H25.786v6.83h-.945V-30.029Zm2.834,3.9q0-2.927-2.834-2.927H25.786V-23.2h12.28Q40.9-23.2,40.9-26.127ZM51.46-15.394q-3.779,0-3.779-3.9v-6.83q0-3.9,3.779-3.9h9.446q3.779,0,3.779,3.9v6.83q0,3.9-3.779,3.9Zm-2.834-3.9q0,2.927,2.834,2.927h9.446q2.834,0,2.834-2.927v-6.83q0-2.927-2.834-2.927H51.46q-2.834,0-2.834,2.927Zm37.954,0V-30.029h.945V-19.3q0,3.9-3.779,3.9H74.3q-3.779,0-3.779-3.9V-30.029h.945V-19.3q0,2.927,2.834,2.927h9.446Q86.58-16.37,86.58-19.3Zm20.006-10.732q3.779,0,3.779,3.9t-3.779,3.9H94.3v6.83H93.36V-30.029Zm2.834,3.9q0-2.927-2.834-2.927H94.3V-23.2h12.28Q109.419-23.2,109.419-26.127Zm10.115,10.732q-3.779,0-3.779-3.9h.945q0,2.927,2.834,2.927h9.446q2.834,0,2.834-2.927t-2.834-2.927h-9.446q-3.779,0-3.779-3.9t3.779-3.9h9.446q3.779,0,3.779,3.9h-.945q0-2.927-2.834-2.927h-9.446q-2.834,0-2.834,2.927t2.834,2.927h9.446q3.779,0,3.779,3.9t-3.779,3.9Zm20.006-6.83v6.83H138.6V-30.029h.945v6.83h15.114v-6.83h.945v14.635h-.945v-6.83Zm25.674,6.83q-3.779,0-3.779-3.9v-6.83q0-3.9,3.779-3.9h9.446q3.779,0,3.779,3.9v6.83q0,3.9-3.779,3.9Zm-2.834-3.9q0,2.927,2.834,2.927h9.446q2.834,0,2.834-2.927v-6.83q0-2.927-2.834-2.927h-9.446q-2.834,0-2.834,2.927ZM197.5-30.029q3.779,0,3.779,3.9t-3.779,3.9h-12.28v6.83h-.945V-30.029Zm2.834,3.9q0-2.927-2.834-2.927h-12.28V-23.2H197.5Q200.334-23.2,200.334-26.127Z" transform="translate(-1.502 30.529)" stroke="#000" stroke-linecap="square" stroke-width="1"/>
</svg>
